<?xml version="1.0" encoding="UTF-8" standalone="no"?>
<!-- Created with Inkscape (http://www.inkscape.org/) -->

<svg
   xmlns:dc="http://purl.org/dc/elements/1.1/"
   xmlns:cc="http://creativecommons.org/ns#"
   xmlns:rdf="http://www.w3.org/1999/02/22-rdf-syntax-ns#"
   xmlns:svg="http://www.w3.org/2000/svg"
   xmlns="http://www.w3.org/2000/svg"
   xmlns:xlink="http://www.w3.org/1999/xlink"
   version="1.1"
   width="563.67871"
   height="366.11691"
   id="svg2">
  <defs
     id="defs4">
    <linearGradient
       id="linearGradient6420">
      <stop
         id="stop6422"
         style="stop-color:#ffcc00;stop-opacity:1"
         offset="0" />
      <stop
         id="stop6424"
         style="stop-color:#ffcc00;stop-opacity:0"
         offset="1" />
    </linearGradient>
    <linearGradient
       id="linearGradient6343">
      <stop
         id="stop6345"
         style="stop-color:#d45500;stop-opacity:1"
         offset="0" />
      <stop
         id="stop6347"
         style="stop-color:#d45500;stop-opacity:0"
         offset="1" />
    </linearGradient>
    <linearGradient
       id="linearGradient6333">
      <stop
         id="stop6335"
         style="stop-color:#2b0000;stop-opacity:1"
         offset="0" />
      <stop
         id="stop6337"
         style="stop-color:#2b0000;stop-opacity:0"
         offset="1" />
    </linearGradient>
    <linearGradient
       id="linearGradient6203">
      <stop
         id="stop6205"
         style="stop-color:#ffffff;stop-opacity:1"
         offset="0" />
      <stop
         id="stop6207"
         style="stop-color:#ffffff;stop-opacity:0"
         offset="1" />
    </linearGradient>
    <linearGradient
       id="linearGradient6193">
      <stop
         id="stop6195"
         style="stop-color:#d45500;stop-opacity:1"
         offset="0" />
      <stop
         id="stop6197"
         style="stop-color:#d45500;stop-opacity:0"
         offset="1" />
    </linearGradient>
    <linearGradient
       id="linearGradient6155">
      <stop
         id="stop6157"
         style="stop-color:#ffffff;stop-opacity:1"
         offset="0" />
      <stop
         id="stop6159"
         style="stop-color:#ffffff;stop-opacity:0"
         offset="1" />
    </linearGradient>
    <linearGradient
       id="linearGradient6139">
      <stop
         id="stop6141"
         style="stop-color:#ff6600;stop-opacity:1"
         offset="0" />
      <stop
         id="stop6143"
         style="stop-color:#ff6600;stop-opacity:0"
         offset="1" />
    </linearGradient>
    <linearGradient
       id="linearGradient6088">
      <stop
         id="stop6090"
         style="stop-color:#d40000;stop-opacity:1"
         offset="0" />
      <stop
         id="stop6092"
         style="stop-color:#d40000;stop-opacity:0"
         offset="1" />
    </linearGradient>
    <linearGradient
       id="linearGradient6025">
      <stop
         id="stop6027"
         style="stop-color:#808080;stop-opacity:1"
         offset="0" />
      <stop
         id="stop6029"
         style="stop-color:#808080;stop-opacity:0"
         offset="1" />
    </linearGradient>
    <linearGradient
       id="linearGradient4923">
      <stop
         id="stop4925"
         style="stop-color:#999999;stop-opacity:1"
         offset="0" />
      <stop
         id="stop4927"
         style="stop-color:#999999;stop-opacity:0"
         offset="1" />
    </linearGradient>
    <linearGradient
       id="linearGradient4804">
      <stop
         id="stop4806"
         style="stop-color:#ffffff;stop-opacity:1"
         offset="0" />
      <stop
         id="stop4808"
         style="stop-color:#ffffff;stop-opacity:0"
         offset="1" />
    </linearGradient>
    <clipPath
       id="clipPath3000">
      <rect
         width="242.11934"
         height="415.78607"
         rx="601.05334"
         ry="32.958656"
         x="183.80788"
         y="251.21338"
         id="rect3002"
         style="fill:#000000;fill-opacity:1;fill-rule:nonzero;stroke:none" />
    </clipPath>
    <clipPath
       id="clipPath4800">
      <path
         d="m -1688.737,-724.21778 c 0,0 152.3808,-66.33043 252.7728,7.17086 100.392,73.50129 256.3581,206.16215 313.725,173.89329 57.3668,-32.26886 59.1596,-197.19858 46.6106,-250.98001 -12.549,-53.78144 -173.8933,-179.27144 -173.8933,-179.27144 l -243.8092,30.47614 -213.333,121.90458 z"
         id="path4802"
         style="fill:none;stroke:#000000;stroke-width:1px;stroke-linecap:butt;stroke-linejoin:miter;stroke-opacity:1" />
    </clipPath>
    <linearGradient
       x1="-1134.7882"
       y1="-1154.4692"
       x2="-1287.1689"
       y2="-467.85962"
       id="linearGradient4810"
       xlink:href="#linearGradient4804"
       gradientUnits="userSpaceOnUse" />
    <linearGradient
       x1="-1132.9955"
       y1="-944.72162"
       x2="-1186.7769"
       y2="-539.56824"
       id="linearGradient4929"
       xlink:href="#linearGradient4923"
       gradientUnits="userSpaceOnUse" />
    <linearGradient
       x1="-1132.9955"
       y1="-944.72162"
       x2="-1186.7769"
       y2="-539.56824"
       id="linearGradient4943"
       xlink:href="#linearGradient4923"
       gradientUnits="userSpaceOnUse" />
    <linearGradient
       x1="-1132.9955"
       y1="-944.72162"
       x2="-1186.7769"
       y2="-539.56824"
       id="linearGradient4945"
       xlink:href="#linearGradient4923"
       gradientUnits="userSpaceOnUse" />
    <filter
       color-interpolation-filters="sRGB"
       id="filter5087">
      <feGaussianBlur
         id="feGaussianBlur5089"
         stdDeviation="2.914488" />
    </filter>
    <filter
       x="0"
       y="0"
       width="1"
       height="1"
       color-interpolation-filters="sRGB"
       id="filter5932">
      <feColorMatrix
         result="fbSourceGraphic"
         values="1"
         type="saturate"
         id="feColorMatrix5934" />
      <feColorMatrix
         values="-1 0 0 0 1 0 -1 0 0 1 0 0 -1 0 1 0 0 0 1 0 "
         in="fbSourceGraphic"
         id="feColorMatrix5936" />
    </filter>
    <clipPath
       id="clipPath5963">
      <rect
         width="462.52032"
         height="240.22372"
         rx="2129.7166"
         ry="116.78264"
         x="-141.21805"
         y="151.52237"
         id="rect5965"
         style="fill:#f9f9f9;fill-opacity:1;fill-rule:nonzero;stroke:#ffffff;stroke-width:2;stroke-linecap:butt;stroke-linejoin:miter;stroke-miterlimit:4;stroke-opacity:1;stroke-dasharray:none;stroke-dashoffset:0" />
    </clipPath>
    <linearGradient
       x1="298.89334"
       y1="219.64552"
       x2="328.47314"
       y2="364.85538"
       id="linearGradient6051"
       xlink:href="#linearGradient6025"
       gradientUnits="userSpaceOnUse"
       gradientTransform="translate(-0.8963572,0.8963572)" />
    <filter
       color-interpolation-filters="sRGB"
       id="filter6065">
      <feGaussianBlur
         id="feGaussianBlur6067"
         stdDeviation="2.6862547" />
    </filter>
    <filter
       color-interpolation-filters="sRGB"
       id="filter6118">
      <feGaussianBlur
         id="feGaussianBlur6120"
         stdDeviation="2.6862547" />
    </filter>
    <radialGradient
       cx="361.22772"
       cy="727.32477"
       r="164.63673"
       fx="361.22772"
       fy="727.32477"
       id="radialGradient6127"
       xlink:href="#linearGradient6088"
       gradientUnits="userSpaceOnUse"
       gradientTransform="matrix(0.86022386,-0.26133379,0.18360321,0.60435118,-80.84483,374.65424)" />
    <clipPath
       id="clipPath6151">
      <path
         d="m 439.21503,587.52386 a 164.92972,76.638542 0 1 1 -329.85944,0 164.92972,76.638542 0 1 1 329.85944,0 z"
         transform="translate(99.902042,53.85771)"
         id="path6153"
         style="fill:#ffffff;fill-opacity:1;fill-rule:nonzero;stroke:#ffffff;stroke-width:2;stroke-linecap:butt;stroke-linejoin:miter;stroke-miterlimit:4;stroke-opacity:1;stroke-dasharray:none;stroke-dashoffset:0" />
    </clipPath>
    <linearGradient
       x1="389.42542"
       y1="588.9447"
       x2="427.07242"
       y2="755.66711"
       id="linearGradient6161"
       xlink:href="#linearGradient6155"
       gradientUnits="userSpaceOnUse" />
    <filter
       color-interpolation-filters="sRGB"
       id="filter6185">
      <feGaussianBlur
         id="feGaussianBlur6187"
         stdDeviation="2.7144804" />
    </filter>
    <linearGradient
       x1="403.76712"
       y1="673.20227"
       x2="427.96878"
       y2="777.17969"
       id="linearGradient6246"
       xlink:href="#linearGradient6139"
       gradientUnits="userSpaceOnUse" />
    <linearGradient
       x1="389.42542"
       y1="588.9447"
       x2="427.07242"
       y2="755.66711"
       id="linearGradient6248"
       xlink:href="#linearGradient6155"
       gradientUnits="userSpaceOnUse" />
    <linearGradient
       x1="199.01956"
       y1="781.95459"
       x2="202.82248"
       y2="787.02515"
       id="linearGradient6250"
       xlink:href="#linearGradient6193"
       gradientUnits="userSpaceOnUse" />
    <linearGradient
       x1="193.43593"
       y1="773.46143"
       x2="205.93123"
       y2="792.98309"
       id="linearGradient6252"
       xlink:href="#linearGradient6203"
       gradientUnits="userSpaceOnUse" />
    <linearGradient
       x1="199.01956"
       y1="781.95459"
       x2="202.82248"
       y2="787.02515"
       id="linearGradient6254"
       xlink:href="#linearGradient6193"
       gradientUnits="userSpaceOnUse" />
    <linearGradient
       x1="193.43593"
       y1="773.46143"
       x2="205.93123"
       y2="792.98309"
       id="linearGradient6256"
       xlink:href="#linearGradient6203"
       gradientUnits="userSpaceOnUse" />
    <linearGradient
       x1="389.42542"
       y1="588.9447"
       x2="427.07242"
       y2="755.66711"
       id="linearGradient6288"
       xlink:href="#linearGradient6155"
       gradientUnits="userSpaceOnUse" />
    <linearGradient
       x1="400.83417"
       y1="607.95929"
       x2="423.2695"
       y2="734.11725"
       id="linearGradient6312"
       xlink:href="#linearGradient6155"
       gradientUnits="userSpaceOnUse" />
    <filter
       color-interpolation-filters="sRGB"
       id="filter6320">
      <feGaussianBlur
         id="feGaussianBlur6322"
         stdDeviation="2.6862547" />
    </filter>
    <linearGradient
       x1="400.83417"
       y1="607.95929"
       x2="423.2695"
       y2="734.11725"
       id="linearGradient6329"
       xlink:href="#linearGradient6155"
       gradientUnits="userSpaceOnUse" />
    <linearGradient
       x1="-167.5701"
       y1="721.72467"
       x2="-185.31708"
       y2="606.36938"
       id="linearGradient6339"
       xlink:href="#linearGradient6333"
       gradientUnits="userSpaceOnUse"
       gradientTransform="translate(-1.2676403,5.0705619)" />
    <radialGradient
       cx="-180.99167"
       cy="637.23138"
       r="164.63673"
       fx="-180.99167"
       fy="637.23138"
       id="radialGradient6349"
       xlink:href="#linearGradient6343"
       gradientUnits="userSpaceOnUse"
       gradientTransform="matrix(0.63136895,-0.02309878,0.02309326,0.63120296,-79.422098,253.20726)" />
    <linearGradient
       x1="400.83417"
       y1="607.95929"
       x2="423.2695"
       y2="734.11725"
       id="linearGradient6411"
       xlink:href="#linearGradient6155"
       gradientUnits="userSpaceOnUse" />
    <linearGradient
       x1="400.83417"
       y1="607.95929"
       x2="424.16586"
       y2="710.81195"
       id="linearGradient6416"
       xlink:href="#linearGradient6155"
       gradientUnits="userSpaceOnUse" />
    <radialGradient
       cx="-177.96869"
       cy="971.08478"
       r="164.63675"
       fx="-177.96869"
       fy="971.08478"
       id="radialGradient6426"
       xlink:href="#linearGradient6420"
       gradientUnits="userSpaceOnUse"
       gradientTransform="matrix(0.10541227,0.41766935,-0.91160595,0.23007305,1055.8975,675.59825)" />
    <linearGradient
       x1="400.83417"
       y1="607.95929"
       x2="424.16586"
       y2="710.81195"
       id="linearGradient6434"
       xlink:href="#linearGradient6155"
       gradientUnits="userSpaceOnUse" />
    <filter
       color-interpolation-filters="sRGB"
       id="filter6320-4">
      <feGaussianBlur
         id="feGaussianBlur6322-6"
         stdDeviation="2.6862547" />
    </filter>
    <radialGradient
       cx="-177.96869"
       cy="971.08478"
       r="164.63675"
       fx="-177.96869"
       fy="971.08478"
       id="radialGradient6426-1"
       xlink:href="#linearGradient6420-0"
       gradientUnits="userSpaceOnUse"
       gradientTransform="matrix(0.10541227,0.41766935,-0.91160595,0.23007305,1055.8975,675.59825)" />
    <linearGradient
       id="linearGradient6420-0">
      <stop
         id="stop6422-1"
         style="stop-color:#ffcc00;stop-opacity:1"
         offset="0" />
      <stop
         id="stop6424-2"
         style="stop-color:#ffcc00;stop-opacity:0"
         offset="1" />
    </linearGradient>
    <linearGradient
       x1="400.83417"
       y1="607.95929"
       x2="424.16586"
       y2="710.81195"
       id="linearGradient6630"
       xlink:href="#linearGradient6155-5"
       gradientUnits="userSpaceOnUse" />
    <linearGradient
       id="linearGradient6155-5">
      <stop
         id="stop6157-5"
         style="stop-color:#ffffff;stop-opacity:1"
         offset="0" />
      <stop
         id="stop6159-1"
         style="stop-color:#ffffff;stop-opacity:0"
         offset="1" />
    </linearGradient>
    <clipPath
       id="clipPath6151-3">
      <path
         d="m 439.21503,587.52386 a 164.92972,76.638542 0 1 1 -329.85944,0 164.92972,76.638542 0 1 1 329.85944,0 z"
         transform="translate(99.902042,53.85771)"
         id="path6153-6"
         style="fill:#ffffff;fill-opacity:1;fill-rule:nonzero;stroke:#ffffff;stroke-width:2;stroke-linecap:butt;stroke-linejoin:miter;stroke-miterlimit:4;stroke-opacity:1;stroke-dasharray:none;stroke-dashoffset:0" />
    </clipPath>
    <linearGradient
       x1="400.83417"
       y1="607.95929"
       x2="424.16586"
       y2="710.81195"
       id="linearGradient6434-6"
       xlink:href="#linearGradient6155-5"
       gradientUnits="userSpaceOnUse" />
    <clipPath
       id="clipPath6930">
      <path
         d="m 439.21503,587.52386 a 164.92972,76.638542 0 1 1 -329.85944,0 164.92972,76.638542 0 1 1 329.85944,0 z"
         transform="translate(99.902042,53.85771)"
         id="path6932"
         style="fill:#ffffff;fill-opacity:1;fill-rule:nonzero;stroke:#ffffff;stroke-width:2;stroke-linecap:butt;stroke-linejoin:miter;stroke-miterlimit:4;stroke-opacity:1;stroke-dasharray:none;stroke-dashoffset:0" />
    </clipPath>
    <linearGradient
       x1="400.83417"
       y1="607.95929"
       x2="424.16586"
       y2="710.81195"
       id="linearGradient6940"
       xlink:href="#linearGradient6155-5"
       gradientUnits="userSpaceOnUse" />
    <filter
       color-interpolation-filters="sRGB"
       id="filter6065-2">
      <feGaussianBlur
         id="feGaussianBlur6067-4"
         stdDeviation="2.6862547" />
    </filter>
    <linearGradient
       x1="298.89334"
       y1="219.64552"
       x2="328.47314"
       y2="364.85538"
       id="linearGradient6626"
       xlink:href="#linearGradient6025-2"
       gradientUnits="userSpaceOnUse"
       gradientTransform="translate(-0.8963572,0.8963572)" />
    <linearGradient
       id="linearGradient6025-2">
      <stop
         id="stop6027-1"
         style="stop-color:#808080;stop-opacity:1"
         offset="0" />
      <stop
         id="stop6029-4"
         style="stop-color:#808080;stop-opacity:0"
         offset="1" />
    </linearGradient>
    <linearGradient
       x1="298.89334"
       y1="219.64552"
       x2="328.47314"
       y2="364.85538"
       id="linearGradient7017"
       xlink:href="#linearGradient6025-2"
       gradientUnits="userSpaceOnUse"
       gradientTransform="translate(-0.8963572,0.8963572)" />
    <filter
       color-interpolation-filters="sRGB"
       id="filter6118-9">
      <feGaussianBlur
         id="feGaussianBlur6120-1"
         stdDeviation="2.6862547" />
    </filter>
    <radialGradient
       cx="361.22772"
       cy="727.32477"
       r="164.63673"
       fx="361.22772"
       fy="727.32477"
       id="radialGradient6127-9"
       xlink:href="#linearGradient6088-8"
       gradientUnits="userSpaceOnUse"
       gradientTransform="matrix(0.86022386,-0.26133379,0.18360321,0.60435118,-80.84483,374.65424)" />
    <linearGradient
       id="linearGradient6088-8">
      <stop
         id="stop6090-2"
         style="stop-color:#d40000;stop-opacity:1"
         offset="0" />
      <stop
         id="stop6092-6"
         style="stop-color:#d40000;stop-opacity:0"
         offset="1" />
    </linearGradient>
    <radialGradient
       cx="361.22772"
       cy="727.32477"
       r="164.63673"
       fx="361.22772"
       fy="727.32477"
       id="radialGradient7066"
       xlink:href="#linearGradient6088-8"
       gradientUnits="userSpaceOnUse"
       gradientTransform="matrix(0.86022386,-0.26133379,0.18360321,0.60435118,-80.84483,374.65424)" />
    <filter
       color-interpolation-filters="sRGB"
       id="filter6320-42">
      <feGaussianBlur
         id="feGaussianBlur6322-2"
         stdDeviation="2.6862547" />
    </filter>
    <linearGradient
       x1="400.83417"
       y1="607.95929"
       x2="423.2695"
       y2="734.11725"
       id="linearGradient6329-2"
       xlink:href="#linearGradient6155-1"
       gradientUnits="userSpaceOnUse" />
    <linearGradient
       id="linearGradient6155-1">
      <stop
         id="stop6157-9"
         style="stop-color:#ffffff;stop-opacity:1"
         offset="0" />
      <stop
         id="stop6159-17"
         style="stop-color:#ffffff;stop-opacity:0"
         offset="1" />
    </linearGradient>
    <clipPath
       id="clipPath6151-6">
      <path
         d="m 439.21503,587.52386 a 164.92972,76.638542 0 1 1 -329.85944,0 164.92972,76.638542 0 1 1 329.85944,0 z"
         transform="translate(99.902042,53.85771)"
         id="path6153-65"
         style="fill:#ffffff;fill-opacity:1;fill-rule:nonzero;stroke:#ffffff;stroke-width:2;stroke-linecap:butt;stroke-linejoin:miter;stroke-miterlimit:4;stroke-opacity:1;stroke-dasharray:none;stroke-dashoffset:0" />
    </clipPath>
    <linearGradient
       x1="400.83417"
       y1="607.95929"
       x2="423.2695"
       y2="734.11725"
       id="linearGradient7125"
       xlink:href="#linearGradient6155-1"
       gradientUnits="userSpaceOnUse" />
    <linearGradient
       x1="400.83417"
       y1="607.95929"
       x2="423.2695"
       y2="734.11725"
       id="linearGradient7161"
       xlink:href="#linearGradient6155-1"
       gradientUnits="userSpaceOnUse" />
    <filter
       color-interpolation-filters="sRGB"
       id="filter6185-4">
      <feGaussianBlur
         id="feGaussianBlur6187-9"
         stdDeviation="2.7144804" />
    </filter>
    <linearGradient
       x1="403.76712"
       y1="673.20227"
       x2="427.96878"
       y2="777.17969"
       id="linearGradient6246-1"
       xlink:href="#linearGradient6139-0"
       gradientUnits="userSpaceOnUse" />
    <linearGradient
       id="linearGradient6139-0">
      <stop
         id="stop6141-4"
         style="stop-color:#ff6600;stop-opacity:1"
         offset="0" />
      <stop
         id="stop6143-6"
         style="stop-color:#ff6600;stop-opacity:0"
         offset="1" />
    </linearGradient>
    <linearGradient
       x1="389.42542"
       y1="588.9447"
       x2="427.07242"
       y2="755.66711"
       id="linearGradient6248-7"
       xlink:href="#linearGradient6155-8"
       gradientUnits="userSpaceOnUse" />
    <linearGradient
       id="linearGradient6155-8">
      <stop
         id="stop6157-4"
         style="stop-color:#ffffff;stop-opacity:1"
         offset="0" />
      <stop
         id="stop6159-0"
         style="stop-color:#ffffff;stop-opacity:0"
         offset="1" />
    </linearGradient>
    <clipPath
       id="clipPath6151-5">
      <path
         d="m 439.21503,587.52386 a 164.92972,76.638542 0 1 1 -329.85944,0 164.92972,76.638542 0 1 1 329.85944,0 z"
         transform="translate(99.902042,53.85771)"
         id="path6153-8"
         style="fill:#ffffff;fill-opacity:1;fill-rule:nonzero;stroke:#ffffff;stroke-width:2;stroke-linecap:butt;stroke-linejoin:miter;stroke-miterlimit:4;stroke-opacity:1;stroke-dasharray:none;stroke-dashoffset:0" />
    </clipPath>
    <linearGradient
       x1="199.01956"
       y1="781.95459"
       x2="202.82248"
       y2="787.02515"
       id="linearGradient6250-8"
       xlink:href="#linearGradient6193-5"
       gradientUnits="userSpaceOnUse" />
    <linearGradient
       id="linearGradient6193-5">
      <stop
         id="stop6195-6"
         style="stop-color:#d45500;stop-opacity:1"
         offset="0" />
      <stop
         id="stop6197-1"
         style="stop-color:#d45500;stop-opacity:0"
         offset="1" />
    </linearGradient>
    <linearGradient
       x1="193.43593"
       y1="773.46143"
       x2="205.93123"
       y2="792.98309"
       id="linearGradient6252-7"
       xlink:href="#linearGradient6203-0"
       gradientUnits="userSpaceOnUse" />
    <linearGradient
       id="linearGradient6203-0">
      <stop
         id="stop6205-2"
         style="stop-color:#ffffff;stop-opacity:1"
         offset="0" />
      <stop
         id="stop6207-0"
         style="stop-color:#ffffff;stop-opacity:0"
         offset="1" />
    </linearGradient>
    <linearGradient
       x1="199.01956"
       y1="781.95459"
       x2="202.82248"
       y2="787.02515"
       id="linearGradient6254-9"
       xlink:href="#linearGradient6193-5"
       gradientUnits="userSpaceOnUse" />
    <linearGradient
       x1="193.43593"
       y1="773.46143"
       x2="205.93123"
       y2="792.98309"
       id="linearGradient6256-4"
       xlink:href="#linearGradient6203-0"
       gradientUnits="userSpaceOnUse" />
    <filter
       color-interpolation-filters="sRGB"
       id="filter6320-1">
      <feGaussianBlur
         id="feGaussianBlur6322-0"
         stdDeviation="2.6862547" />
    </filter>
    <linearGradient
       x1="400.83417"
       y1="607.95929"
       x2="423.2695"
       y2="734.11725"
       id="linearGradient6329-27"
       xlink:href="#linearGradient6155-9"
       gradientUnits="userSpaceOnUse" />
    <linearGradient
       id="linearGradient6155-9">
      <stop
         id="stop6157-47"
         style="stop-color:#ffffff;stop-opacity:1"
         offset="0" />
      <stop
         id="stop6159-06"
         style="stop-color:#ffffff;stop-opacity:0"
         offset="1" />
    </linearGradient>
    <clipPath
       id="clipPath6151-1">
      <path
         d="m 439.21503,587.52386 a 164.92972,76.638542 0 1 1 -329.85944,0 164.92972,76.638542 0 1 1 329.85944,0 z"
         transform="translate(99.902042,53.85771)"
         id="path6153-2"
         style="fill:#ffffff;fill-opacity:1;fill-rule:nonzero;stroke:#ffffff;stroke-width:2;stroke-linecap:butt;stroke-linejoin:miter;stroke-miterlimit:4;stroke-opacity:1;stroke-dasharray:none;stroke-dashoffset:0" />
    </clipPath>
    <linearGradient
       x1="400.83417"
       y1="607.95929"
       x2="423.2695"
       y2="734.11725"
       id="linearGradient7336"
       xlink:href="#linearGradient6155-9"
       gradientUnits="userSpaceOnUse" />
  </defs>
  <metadata
     id="metadata7">
    <rdf:RDF>
      <cc:Work
         rdf:about="">
        <dc:format>image/svg+xml</dc:format>
        <dc:type
           rdf:resource="http://purl.org/dc/dcmitype/StillImage" />
        <dc:title></dc:title>
      </cc:Work>
    </rdf:RDF>
  </metadata>
  <g
     transform="translate(-88.762541,-61.900762)"
     id="layer1">
    <g
       transform="translate(25.098001,-489.41103)"
       id="text4961"
       style="font-size:107.04443359px;font-style:normal;font-variant:normal;font-weight:bold;font-stretch:normal;line-height:125%;letter-spacing:0px;word-spacing:0px;fill:#000000;fill-opacity:1;stroke:none;font-family:Arial;-inkscape-font-specification:Arial Bold" />
    <g
       transform="matrix(1.6023194,0,0,1.6023194,-122.43675,-930.63106)"
       id="g6324">
      <path
         d="m 328.63964,836.80538 c -2.11287,-4.43214 -4.51847,-10.59913 -7.20216,-15.01626 -3.01546,-6.27562 -7.38495,-12.9852 -12.00359,-17.83432 -6.24531,-7.89331 -15.28231,-13.78229 -24.71198,-17.06954 -8.55956,-1.29268 -15.31631,5.15791 -20.75163,10.72769 -0.44875,-7.47645 1.63189,-16.51693 -3.34386,-23.07499 -0.80914,-4.09659 -6.00792,-5.60723 -8.39716,-7.73337 -5.5684,-2.47218 -11.77335,-3.27757 -17.81783,-1.4766 -5.46757,1.46318 -10.54228,3.25099 -15.45463,6.45699 -4.30588,2.4018 -7.47441,5.43178 -11.55346,8.55927 -5.25783,1.87321 2.84454,-16.08 -2.56438,-20.57228 -1.92076,-5.39375 -8.52523,-6.51237 -13.02706,-8.92367 -9.01872,-1.78211 -17.92324,0.0989 -26.42116,2.46668 -4.7017,1.01032 -8.89554,4.48589 -12.90386,6.87406 -3.81337,2.63536 -7.03199,4.39495 -10.6251,6.79074 -0.83213,-8.1817 2.51797,-15.82309 3.83246,-23.83771 1.27269,-5.68908 3.62691,-11.21538 4.78902,-16.97561 2.36531,-4.65989 3.89839,-9.67801 5.90479,-14.29635 3.04209,-6.09383 5.99425,-12.01561 9.00269,-18.01951 2.40183,-3.61735 5.47444,-8.30701 8.10243,-12.16317 2.78737,-3.27767 5.15356,-6.79609 8.40251,-9.91073 3.91673,-3.92752 7.60762,-7.92061 12.15364,-10.81171 4.16997,-2.95397 -0.99373,10.20159 -0.34296,13.56469 1.13565,5.77181 1.43802,12.31055 4.69426,17.3688 2.44753,3.55627 4.61564,6.75619 7.6523,9.91073 6.49947,7.368 14.42943,13.16527 23.25696,17.59289 4.90751,2.56496 10.08938,4.2741 15.30458,5.98264 8.22227,1.8466 16.56056,4.15995 25.35759,4.35471 7.64659,2.15299 15.32303,1.46288 10.74596,-8.20092 -3.11078,-9.8105 -3.69307,-18.76386 3.80841,-9.06777 3.99664,5.94678 18.07398,3.22126 18.80812,-4.75631 0.9079,-6.29417 0.29446,-18.60193 7.67578,3.39494 -0.10628,4.05219 2.78673,8.34087 10.87942,5.49877 4.87945,-2.03047 6.94522,-2.31045 11.55131,-5.18854 3.56617,-2.68472 7.12041,-5.77551 10.19898,-8.41321 5.65855,-5.65789 11.60305,-12.21239 16.20894,-19.21671 3.64831,-6.88838 8.06009,-14.398 8.81203,-22.63641 2.4141,-8.58009 0.037,-17.95638 -3.1981,-25.75922 -6.77531,-9.80439 7.59067,-3.54543 12.54151,-3.56062 6.79493,1.21478 13.37473,2.70699 19.65588,5.58241 5.04355,1.61248 10.22786,3.8628 14.85444,6.43059 5.36636,2.13778 10.68452,6.08879 15.90477,9.00976 3.60319,2.43374 7.16426,5.13781 10.95328,7.95862 4.49587,3.37568 8.70639,6.74861 12.52875,10.84925 3.49793,1.75697 5.97315,5.45771 8.90382,8.2214 3.47743,4.1349 6.92688,8.02659 10.19882,12.013 -3.44417,0.86172 -12.77967,-4.04016 -18.33425,-5.02275 -8.70427,-0.63787 -17.69955,-1.74888 -25.55627,2.81419 -6.62731,1.90136 -12.36675,8.09952 -13.05769,15.12255 -2.75852,8.3239 1.45061,16.08158 3.50659,23.68666 2.70115,4.23065 4.67837,9.02601 6.80573,13.25333 -2.83378,0.2249 -8.64328,-4.53148 -12.97889,-5.10143 -6.50326,-2.7673 -14.2653,-4.91551 -21.83153,-3.49282 -5.4912,0.99712 -9.97567,4.00989 -13.50404,8.59425 -3.29705,6.0182 -6.23175,14.35628 -3.69167,21.45957 2.52872,8.22375 1.45312,9.42283 -3.81055,3.01693 -3.83424,-4.07208 -8.77395,-6.02196 -14.10422,-6.90747 -5.24776,-0.83887 -11.54571,1.46988 -15.00449,6.0065 -7.88339,6.68494 -10.41976,17.19301 -12.41035,26.57878 -3.1636,14.9 -0.43343,30.28459 2.20728,44.89861 l -0.30008,1.05114 z M 296.78346,735.25355 c -1.04958,-7.60552 -11.76492,0.11232 -2.06451,1.39338 1.02294,0.43302 1.78332,-0.97615 2.06451,-1.39338 z m 7.5489,-0.86848 c 5.37024,-6.92639 -1.17105,-5.41576 -3.75112,-1.49222 -1.55602,3.01575 2.53385,1.95095 3.75112,1.49222 z"
         id="path6314"
         style="fill:#000000;filter:url(#filter6320-1)" />
      <path
         d="m 328.63964,838.07302 c -2.11287,-4.43214 -4.51847,-10.59913 -7.20216,-15.01626 -3.01546,-6.27562 -7.38495,-12.9852 -12.00359,-17.83432 -6.24531,-7.89331 -15.28231,-13.78229 -24.71198,-17.06954 -8.55956,-1.29268 -15.31631,5.15791 -20.75163,10.72769 -0.44875,-7.47645 1.63189,-16.51693 -3.34386,-23.07499 -0.80914,-4.09659 -6.00792,-5.60723 -8.39716,-7.73337 -5.5684,-2.47218 -11.77335,-3.27757 -17.81783,-1.4766 -5.46757,1.46318 -10.54228,3.25099 -15.45463,6.45699 -4.30588,2.4018 -7.47441,5.43178 -11.55346,8.55927 -5.25783,1.87321 2.84454,-16.08 -2.56438,-20.57228 -1.92076,-5.39375 -8.52523,-6.51237 -13.02706,-8.92367 -9.01872,-1.78211 -17.92324,0.0989 -26.42116,2.46668 -4.7017,1.01032 -8.89554,4.48589 -12.90386,6.87406 -3.81337,2.63536 -7.03199,4.39495 -10.6251,6.79074 -0.83213,-8.1817 2.51797,-15.82309 3.83246,-23.83771 1.27269,-5.68908 3.62691,-11.21538 4.78902,-16.97561 2.36531,-4.65989 3.89839,-9.67801 5.90479,-14.29635 3.04209,-6.09383 5.99425,-12.01561 9.00269,-18.01951 2.40183,-3.61735 5.47444,-8.30701 8.10243,-12.16317 2.78737,-3.27767 5.15356,-6.79609 8.40251,-9.91073 3.91673,-3.92752 7.60762,-7.92061 12.15364,-10.81171 4.16997,-2.95397 -0.99373,10.20159 -0.34296,13.56469 1.13565,5.77181 1.43802,12.31055 4.69426,17.3688 2.44753,3.55627 4.61564,6.75619 7.6523,9.91073 6.49947,7.368 14.42943,13.16527 23.25696,17.59289 4.90751,2.56496 10.08938,4.2741 15.30458,5.98264 8.22227,1.8466 16.56056,4.15995 25.35759,4.35471 7.64659,2.15299 15.32303,1.46288 10.74596,-8.20092 -3.11078,-9.8105 -3.69307,-18.76386 3.80841,-9.06777 3.99664,5.94678 18.07398,3.22126 18.80812,-4.75631 0.9079,-6.29417 0.29446,-18.60193 7.67578,3.39494 -0.10628,4.05219 2.78673,8.34087 10.87942,5.49877 4.87945,-2.03047 6.94522,-2.31045 11.55131,-5.18854 3.56617,-2.68472 7.12041,-5.77551 10.19898,-8.41321 5.65855,-5.65789 11.60305,-12.21239 16.20894,-19.21671 3.64831,-6.88838 8.06009,-14.398 8.81203,-22.63641 2.4141,-8.58009 0.037,-17.95638 -3.1981,-25.75922 -6.77531,-9.80439 7.59067,-3.54543 12.54151,-3.56062 6.79493,1.21478 13.37473,2.70699 19.65588,5.58241 5.04355,1.61248 10.22786,3.8628 14.85444,6.43059 5.36636,2.13778 10.68452,6.08879 15.90477,9.00976 3.60319,2.43374 7.16426,5.13781 10.95328,7.95862 4.49587,3.37568 8.70639,6.74861 12.52875,10.84925 3.49793,1.75697 5.97315,5.45771 8.90382,8.2214 3.47743,4.1349 6.92688,8.02659 10.19882,12.013 -3.44417,0.86172 -12.77967,-4.04016 -18.33425,-5.02275 -8.70427,-0.63787 -17.69955,-1.74888 -25.55627,2.81419 -6.62731,1.90136 -12.36675,8.09952 -13.05769,15.12255 -2.75852,8.3239 1.45061,16.08158 3.50659,23.68666 2.70115,4.23065 4.67837,9.02601 6.80573,13.25333 -2.83378,0.2249 -8.64328,-4.53148 -12.97889,-5.10143 -6.50326,-2.7673 -14.2653,-4.91551 -21.83153,-3.49282 -5.4912,0.99712 -9.97567,4.00989 -13.50404,8.59425 -3.29705,6.0182 -6.23175,14.35628 -3.69167,21.45957 2.52872,8.22375 1.45312,9.42283 -3.81055,3.01693 -3.83424,-4.07208 -8.77395,-6.02196 -14.10422,-6.90747 -5.24776,-0.83887 -11.54571,1.46988 -15.00449,6.0065 -7.88339,6.68494 -10.41976,17.19301 -12.41035,26.57878 -3.1636,14.9 -0.43343,30.28459 2.20728,44.89861 l -0.30008,1.05114 z M 296.78346,736.52119 c -1.04958,-7.60552 -11.76492,0.11232 -2.06451,1.39338 1.02294,0.43302 1.78332,-0.97615 2.06451,-1.39338 z m 7.5489,-0.86848 c 5.37024,-6.92639 -1.17105,-5.41576 -3.75112,-1.49222 -1.55602,3.01575 2.53385,1.95095 3.75112,1.49222 z"
         id="path6084"
         style="fill:#000000" />
      <path
         d="m 480.15625,611.46875 c 9.2657,17.63268 3.97194,39.50427 -7.53125,54.8125 -9.93215,14.06755 -23.26268,27.63391 -40.4375,31.84375 -5.7038,1.44149 -11.00172,-3.10757 -11.53125,-8.75 -0.56305,-1.56205 -1.35132,-7.56023 -1.78125,-3.28125 -1.91219,10.90089 -17.45425,13.92079 -24.375,5.875 -1.95118,-2.82521 2.23912,7.61787 0.99035,4.5624 2.46855,4.78354 3.23424,13.20837 -3.4591,14.65635 -6.76968,1.19408 -13.48497,-1.63944 -20.28125,-1.71875 -25.60061,-3.82317 -51.72159,-17.17513 -64.15625,-40.59375 -3.43735,-7.69763 -4.73277,-17.2594 -2.78125,-24.96875 -26.5055,23.00451 -39.95675,57.90845 -46.84375,91.875 -2.72268,7.87137 3.9106,0.7712 7.28125,-0.84375 12.71268,-8.26802 29.42855,-12.21503 44.09375,-7.0625 8.874,2.9641 15.2777,12.51299 12.40625,21.8125 -1.70718,5.24352 0.22384,4.44807 3.59375,1.1875 11.95831,-8.98337 29.18198,-15.2695 43.1875,-7.125 8.64561,5.25591 12.11768,16.04857 10.84375,25.75 6.36501,-7.02833 17.87774,-9.84419 26,-4.125 13.92757,6.82343 24.00571,19.46591 31.15625,33 -2.25271,-19.73032 -0.37329,-42.59667 14,-57.46875 7.25866,-7.62947 19.62404,-8.16871 27.96875,-2.15625 2.40841,1.71924 4.56043,4.03129 3.125,-0.4375 -1.92863,-14.38869 8.62433,-29.80713 23.70593,-30.16619 9.17663,-0.59518 18.08011,3.19776 26.13782,6.60369 -6.40728,-12.10726 -12.31071,-27.85441 -4.25,-40.53125 7.2399,-10.41259 21.55492,-13.58825 33.65625,-12.375 5.3438,0.59428 10.56328,1.9113 15.59375,3.71875 C 551.8488,637.27004 517.82517,615.15321 479.90625,611 l 0.25,0.46875 z M 417.96875,705 c 5.46715,0.43439 4.14893,8.05756 0.25,9.84375 -1.97991,1.56458 -5.56059,1.04324 -6.8125,0.0937 -2.60353,6.34495 -13.70078,0.4925 -9.8125,-5.28125 2.07966,-3.24433 7.63599,-2.62269 9.4375,-0.53125 1.82929,-1.90078 4.1328,-3.88709 6.9375,-4.125 z"
         transform="translate(-111.55237,22.817523)"
         clip-path="url(#clipPath6151-1)"
         id="path6268"
         style="fill:url(#linearGradient7336);fill-opacity:1" />
    </g>
  </g>
</svg>
