<?xml version="1.0" encoding="UTF-8" standalone="no"?>
<!-- Created with Inkscape (http://www.inkscape.org/) -->

<svg
   xmlns:dc="http://purl.org/dc/elements/1.1/"
   xmlns:cc="http://creativecommons.org/ns#"
   xmlns:rdf="http://www.w3.org/1999/02/22-rdf-syntax-ns#"
   xmlns:svg="http://www.w3.org/2000/svg"
   xmlns="http://www.w3.org/2000/svg"
   xmlns:xlink="http://www.w3.org/1999/xlink"
   version="1.1"
   width="827.73602"
   height="860.73865"
   id="svg2">
  <defs
     id="defs4">
    <linearGradient
       id="linearGradient6872">
      <stop
         id="stop6874"
         style="stop-color:#ffffff;stop-opacity:1"
         offset="0" />
      <stop
         id="stop6876"
         style="stop-color:#ffffff;stop-opacity:0"
         offset="1" />
    </linearGradient>
    <linearGradient
       id="linearGradient6858">
      <stop
         id="stop6860"
         style="stop-color:#ffffff;stop-opacity:1"
         offset="0" />
      <stop
         id="stop6862"
         style="stop-color:#ffff00;stop-opacity:0"
         offset="1" />
    </linearGradient>
    <linearGradient
       id="linearGradient6846">
      <stop
         id="stop6848"
         style="stop-color:#2b0000;stop-opacity:1"
         offset="0" />
      <stop
         id="stop6850"
         style="stop-color:#2b0000;stop-opacity:0"
         offset="1" />
    </linearGradient>
    <linearGradient
       id="linearGradient6592">
      <stop
         id="stop6594"
         style="stop-color:#ffffff;stop-opacity:1"
         offset="0" />
      <stop
         id="stop6596"
         style="stop-color:#ffffff;stop-opacity:0"
         offset="1" />
    </linearGradient>
    <linearGradient
       id="linearGradient6556">
      <stop
         id="stop6558"
         style="stop-color:#ff0000;stop-opacity:1"
         offset="0" />
      <stop
         id="stop6560"
         style="stop-color:#ff0000;stop-opacity:0"
         offset="1" />
    </linearGradient>
    <linearGradient
       id="linearGradient6546">
      <stop
         id="stop6548"
         style="stop-color:#ff0000;stop-opacity:1"
         offset="0" />
      <stop
         id="stop6550"
         style="stop-color:#ff0000;stop-opacity:0"
         offset="1" />
    </linearGradient>
    <linearGradient
       id="linearGradient4212">
      <stop
         id="stop4214"
         style="stop-color:#999999;stop-opacity:1"
         offset="0" />
      <stop
         id="stop4216"
         style="stop-color:#999999;stop-opacity:0"
         offset="1" />
    </linearGradient>
    <filter
       color-interpolation-filters="sRGB"
       id="filter4172">
      <feGaussianBlur
         id="feGaussianBlur4174"
         stdDeviation="3.7502589" />
    </filter>
    <linearGradient
       x1="543.85596"
       y1="556.78455"
       x2="548.89453"
       y2="958.19153"
       id="linearGradient4218"
       xlink:href="#linearGradient4212"
       gradientUnits="userSpaceOnUse" />
    <radialGradient
       cx="-763.67529"
       cy="-245.73706"
       r="404.70978"
       fx="-763.67529"
       fy="-245.73706"
       id="radialGradient6614"
       xlink:href="#linearGradient6592"
       gradientUnits="userSpaceOnUse"
       gradientTransform="matrix(2.8107478,-0.66136294,0.54083098,2.2982027,1515.7256,-205.18969)" />
    <filter
       color-interpolation-filters="sRGB"
       id="filter6632">
      <feGaussianBlur
         id="feGaussianBlur6634"
         stdDeviation="16.608974" />
    </filter>
    <linearGradient
       x1="882.0697"
       y1="453.41672"
       x2="877.47308"
       y2="353.31766"
       id="linearGradient6656"
       xlink:href="#linearGradient6546"
       gradientUnits="userSpaceOnUse"
       gradientTransform="matrix(2.4074565,0.21542526,-0.43348102,0.44740935,-2821.992,-574.34435)" />
    <linearGradient
       x1="859.88434"
       y1="270.84222"
       x2="892.58698"
       y2="387.72321"
       id="linearGradient6658"
       xlink:href="#linearGradient6556"
       gradientUnits="userSpaceOnUse"
       gradientTransform="matrix(0.86654606,0.1854367,-0.15602827,0.38512713,-1589.7843,-647.5258)" />
    <filter
       x="-0.10277327"
       y="-0.24045791"
       width="1.2055465"
       height="1.4809158"
       color-interpolation-filters="sRGB"
       id="filter6784">
      <feGaussianBlur
         id="feGaussianBlur6786"
         stdDeviation="21.798252" />
    </filter>
    <filter
       color-interpolation-filters="sRGB"
       id="filter6830">
      <feGaussianBlur
         id="feGaussianBlur6832"
         stdDeviation="16.45" />
    </filter>
    <filter
       color-interpolation-filters="sRGB"
       id="filter6840">
      <feGaussianBlur
         id="feGaussianBlur6842"
         stdDeviation="8.7029085" />
    </filter>
    <linearGradient
       x1="-909.13727"
       y1="-260.83612"
       x2="-913.17792"
       y2="-206.28789"
       id="linearGradient6854"
       xlink:href="#linearGradient6846"
       gradientUnits="userSpaceOnUse"
       gradientTransform="matrix(0.97486646,0,0,1.0290836,-23.842627,4.8875159)" />
    <radialGradient
       cx="863.65778"
       cy="290.71704"
       r="45.456863"
       fx="863.65778"
       fy="290.71704"
       id="radialGradient6864"
       xlink:href="#linearGradient6858"
       gradientUnits="userSpaceOnUse"
       gradientTransform="matrix(1.3477948,-0.00581539,0.00747894,1.7333172,-303.74847,-222.95532)" />
    <radialGradient
       cx="863.65778"
       cy="290.71704"
       r="45.456863"
       fx="863.65778"
       fy="290.71704"
       id="radialGradient6868"
       xlink:href="#linearGradient6858"
       gradientUnits="userSpaceOnUse"
       gradientTransform="matrix(1.3477948,-0.00581539,0.00747894,1.7333172,-303.74847,-222.95532)" />
    <linearGradient
       x1="-880.85303"
       y1="-414.3793"
       x2="-880.85303"
       y2="-341.64832"
       id="linearGradient6878"
       xlink:href="#linearGradient6872"
       gradientUnits="userSpaceOnUse" />
  </defs>
  <metadata
     id="metadata7">
    <rdf:RDF>
      <cc:Work
         rdf:about="">
        <dc:format>image/svg+xml</dc:format>
        <dc:type
           rdf:resource="http://purl.org/dc/dcmitype/StillImage" />
        <dc:title></dc:title>
      </cc:Work>
    </rdf:RDF>
  </metadata>
  <g
     transform="translate(1132.4173,330.9176)"
     id="layer1">
    <g
       transform="matrix(0.96807817,0,0,0.87764963,-38.394439,205.25132)"
       id="g6880">
      <path
         d="m -903.59124,-585.97234 c -104.33256,7.23462 -205.09956,97.93059 -200.29226,206.77757 -2.8986,75.09044 -3.9019,160.57176 51.9009,218.65909 37.9982,42.41352 97.41682,63.505979 122.89435,117.479019 30.67325,51.6386302 41.5459,111.56071 53.95815,169.492901 39.53075,56.94316 91.70569,-18.50151 101.13219,-55.120461 50.3116,-16.17343 70.8572,48.727431 77.7883,86.648701 26.216,54.30036 90.951,24.76969 109.4105,-18.15288 47.4763,-25.19955 86.5992,32.97921 90.9278,75.29086 12.5016,47.04304 23.8553,105.87797 72.3271,128.73557 53.0234,14.2006 84.3398,-64.06401 54.9457,-101.8208 -34.6507,-59.24612 32.4756,-121.56117 4.1512,-182.197801 -34.5573,-61.4155698 -113.6721,-86.11772 -138.2366,-155.27759 -6.8886,-13.666769 -13.7245,-27.382139 -20.4443,-41.160809 -2.9927,-6.13647 58.2714,-21.86035 105.6503,-44.51467 12.5587,-6.00495 82.842,57.76457 84.0502,26.9323 0.3323,-8.48155 -32.3464,-42.89422 -11.9825,-52.81681 7.7563,-3.77937 47.6523,-22.02124 48.7438,-28.53857 3.491,-20.84332 -64.5564,-11.64352 -65.9805,-21.19169 -2.7417,-18.38335 18.3816,-67.67532 -18.8432,-57.59887 -19.8969,5.3859 -43.7943,100.47313 -51.1573,101.93371 -51.5223,10.22033 -114.8031,24.2909 -117.4153,18.47557 -10.7066,-23.8349 -20.8224,-47.9126 -30.0337,-72.30593 -17.6056,-48.45262 7.0958,-137.93118 72.2971,-119.64597 29.6944,20.97002 110.1859,43.96809 97.1775,-18.83613 -20.1627,-50.24383 -78.5138,-67.09818 -121.5524,-93.09933 -122.0268,-47.19945 -247.7952,-94.94977 -371.41703,-88.14698 z"
         transform="matrix(1.0045332,0,0,0.94686195,1.3448431,15.91887)"
         id="path6834"
         style="fill:#000000;stroke:#000000;stroke-width:1px;stroke-linecap:butt;stroke-linejoin:miter;stroke-opacity:1;filter:url(#filter6840)" />
      <path
         d="m -903.59124,-585.97234 c -104.33256,7.23462 -205.09956,97.93059 -200.29226,206.77757 -2.8986,75.09044 -3.9019,160.57176 51.9009,218.65909 37.9982,42.41352 97.41682,63.505979 122.89435,117.479019 30.67325,51.6386302 41.5459,111.56071 53.95815,169.492901 39.53075,56.94316 91.70569,-18.50151 101.13219,-55.120461 50.3116,-16.17343 70.8572,48.727431 77.7883,86.648701 26.216,54.30036 90.951,24.76969 109.4105,-18.15288 47.4763,-25.19955 86.5992,32.97921 90.9278,75.29086 12.5016,47.04304 23.8553,105.87797 72.3271,128.73557 53.0234,14.2006 84.3398,-64.06401 54.9457,-101.8208 -34.6507,-59.24612 32.4756,-121.56117 4.1512,-182.197801 -34.5573,-61.4155698 -113.6721,-86.11772 -138.2366,-155.27759 -6.8886,-13.666769 -13.7245,-27.382139 -20.4443,-41.160809 -2.9927,-6.13647 58.2714,-21.86035 105.6503,-44.51467 12.5587,-6.00495 82.842,57.76457 84.0502,26.9323 0.3323,-8.48155 -32.3464,-42.89422 -11.9825,-52.81681 7.7563,-3.77937 47.6523,-22.02124 48.7438,-28.53857 3.491,-20.84332 -64.5564,-11.64352 -65.9805,-21.19169 -2.7417,-18.38335 18.3816,-67.67532 -18.8432,-57.59887 -19.8969,5.3859 -43.7943,100.47313 -51.1573,101.93371 -51.5223,10.22033 -114.8031,24.2909 -117.4153,18.47557 -10.7066,-23.8349 -20.8224,-47.9126 -30.0337,-72.30593 -17.6056,-48.45262 7.0958,-137.93118 72.2971,-119.64597 29.6944,20.97002 110.1859,43.96809 97.1775,-18.83613 -20.1627,-50.24383 -78.5138,-67.09818 -121.5524,-93.09933 -122.0268,-47.19945 -247.7952,-94.94977 -371.41703,-88.14698 z"
         id="path6588"
         style="fill:#808080;stroke:#000000;stroke-width:1px;stroke-linecap:butt;stroke-linejoin:miter;stroke-opacity:1" />
      <path
         d="m -887.625,-570.53125 c -84.1028,0.021 -166.0608,56.25583 -192.8745,136.29384 -10.3265,31.95541 -7.0496,66.11992 -8.313,99.26866 -0.091,48.10404 4.5311,98.5236 30.3828,140.24852 23.2319,36.24272 60.43326,58.52174 93.63974,84.44895 22.26228,17.896601 41.71258,40.062216 53.72746,66.14628 28.22569,50.6094462 39.03587,108.521816 51.40625,164.625 5.37749,7.73331 16.62065,13.85681 25.34375,7.9375 20.97581,-10.78263 33.1589,-33.035327 42.375,-53.9375 2.27287,-4.956894 2.49023,-11.297973 5.12249,-15.584336 24.75682,-12.758266 58.15951,-5.465285 74.53376,17.271836 18.79174,22.05612 25.52999,51.25947 32.6875,78.65625 7.10945,14.89365 26.58538,20.61155 41.1875,13.40625 17.84669,-6.72446 32.27754,-21.6801 38.6875,-39.625 24.35097,-17.35886 60.57829,-13.35302 81.34375,7.71875 24.41608,21.41878 35.77554,53.55982 40.87546,84.87387 8.93194,34.43952 17.28449,71.85962 44.21829,97.18863 8.63628,8.1145 21.82358,14.95094 33.3125,8.5 18.24162,-8.87022 26.54828,-30.57388 26.59375,-49.71875 -0.005,-12.03591 -5.73308,-22.9299 -12.3125,-32.71875 -14.45149,-28.72991 -9.69074,-62.98055 -0.18076,-92.54222 6.95894,-24.64333 16.83303,-50.63563 10.05576,-76.52028 -9.49327,-26.438443 -33.01722,-44.562118 -53.40625,-62.625 -30.85565,-25.816441 -64.70314,-50.97469 -82.32291,-88.211648 -8.40622,-19.708568 -19.27317,-38.357052 -27.39584,-58.132102 -2.25373,-11.83016 8.17611,-21.57422 18.77459,-24.38439 31.87522,-13.17339 64.9589,-23.10327 96.28791,-37.67811 12.67649,-5.33592 25.688,2.32663 36.45229,8.54399 8.96896,5.62694 18.17819,10.88849 27.17271,16.48726 -6.93643,-12.30214 -12.0207,-29.17947 -3.0625,-41.8125 8.69779,-11.31131 23.64506,-14.10155 35.34375,-21.21875 0.6819,-1.45974 -8.5626,-0.77698 -11.71673,-1.34476 -11.45406,-0.95519 -24.56876,-1.31583 -33.65827,-9.12399 -9.39792,-10.22672 -4.89207,-25.35949 -3.6875,-37.53125 0.89306,-5.71423 2.57315,-11.70323 1.53125,-17.34375 -5.68962,5.1085 -7.9745,13.06899 -11.72826,19.56572 -11.24922,24.03074 -17.34222,50.59118 -30.14674,74.05928 -5.45197,8.58502 -16.01311,10.42818 -25.2808,11.3859 -35.44678,6.2621 -70.4098,16.68256 -106.62545,17.4266 -10.98194,-1.14213 -17.66501,-11.59501 -20.12263,-21.40461 -12.32186,-30.25854 -28.86494,-59.87568 -31.90862,-92.93914 -2.66022,-34.7233 7.33711,-71.95887 32.65625,-96.59375 20.73277,-18.80468 54.49723,-23.46494 78.01374,-7.1105 17.47142,9.54359 37.74797,16.66692 57.86126,13.6105 8.78098,-2.02741 8.79832,-13.80516 5.90625,-20.5 -11.51998,-25.86589 -37.01709,-41.80359 -61.03732,-54.56674 -20.54476,-9.88622 -39.95387,-21.86259 -60.87133,-30.85874 -82.63938,-31.61013 -166.34259,-63.82752 -254.19952,-77.2866 -27.97767,-4.3077 -56.28534,-6.62301 -84.64183,-6.35042 z"
         id="path6590"
         style="fill:url(#radialGradient6614);fill-opacity:1;stroke:#000000;stroke-width:1px;stroke-linecap:butt;stroke-linejoin:miter;stroke-opacity:1;filter:url(#filter6632)" />
      <path
         d="m -997.14281,-156.20925 c 4.76186,1.90476 9.52377,3.80953 14.28567,5.71429 0,0.95238 -0.67343,2.18371 0,2.85714 0.67344,0.67344 1.90476,0 2.85714,0 0.95239,0 1.90477,0 2.85715,0 0.95238,0 2.1837,-0.67343 2.85714,0 3.80952,3.80952 -6.06092,2.7416 2.85714,5.71429 3.61403,1.20467 8.02123,-1.70367 11.42857,0 0.85184,0.42591 -0.67343,2.1837 0,2.85714 0.67344,0.67343 1.95364,-0.30117 2.85715,0 2.0203,0.67343 3.69398,2.18371 5.71428,2.85714 0.90351,0.30117 2.00531,-0.42592 2.85715,0 1.20467,0.60234 1.65246,2.25481 2.85714,2.85715 0.85183,0.42591 2.00531,-0.42592 2.85714,0 1.20468,0.60233 1.65247,2.2548 2.85714,2.85714 1.52388,0.76194 4.19041,-0.76194 5.71429,0 1.20468,0.60234 1.65247,2.2548 2.85714,2.85714 0.85184,0.42592 1.95364,-0.30117 2.85715,0 2.0203,0.67344 3.69398,2.18371 5.71428,2.85714 1.57522,0.52508 10.81772,-0.61085 11.42857,0 0.67344,0.67344 -0.67343,2.18371 0,2.85715 0.67344,0.67343 1.90476,0 2.85715,0 1.90476,0 3.80952,0 5.71428,0 12.38095,0 24.76191,0 37.14286,0 2.85714,0 5.71428,0 8.57143,0 1.90476,0 3.90727,-0.60234 5.71428,0 20.69548,6.89849 -4.50459,-0.82373 8.57143,5.71428 0.85184,0.42592 2.18371,-0.67343 2.85714,0 0.67344,0.67344 -0.67343,2.18371 0,2.85715 1.34687,1.34687 4.01062,-0.85184 5.71429,0 1.20468,0.60233 1.73648,2.11003 2.85714,2.85714 1.77193,1.18128 4.20844,1.35129 5.71429,2.85714 0.67343,0.67344 -0.67344,2.18371 0,2.85714 0.67343,0.67344 2.00531,-0.42591 2.85714,0 11.89075,5.945381 -3.05439,-0.19724 2.85714,5.714291 0.67344,0.67343 2.18371,-0.67344 2.85715,0 0.67343,0.67343 -0.67344,2.18371 0,2.85714 0.67343,0.67344 1.95363,-0.30117 2.85714,0 2.02031,0.67344 4.20844,1.3513 5.71429,2.85715 0.67343,0.67343 -0.67344,2.1837 0,2.85714 1.42857,1.42857 7.14285,-1.42857 8.57142,0 0.67344,0.67343 -0.67343,2.183706 0,2.857141 0.67344,0.673435 1.90477,0 2.85715,0 0.95238,0 1.90476,0 2.85714,0 12.38095,0 24.7619,0 37.14286,0 7.61904,0 15.23809,0 22.85714,0 2.85714,0 5.8609,0.903508 8.57143,0 0.90351,-0.301169 -0.67344,-2.183711 0,-2.857141 1.50585,-1.50585 3.80952,-1.90476 5.71428,-2.85714 1.90477,-0.95239 3.64829,-2.34065 5.71429,-2.85715 1.78188,-0.44547 9.66249,0.70644 11.42857,0 3.95455,-1.58182 7.61905,-3.809521 11.42857,-5.714281 1.90476,-0.95238 3.64828,-2.34064 5.71429,-2.85715 1.84789,-0.46197 3.80952,0 5.71428,0 1.90477,-0.95238 3.69398,-2.1837 5.71429,-2.85714 2.71052,-0.90351 5.79959,0.69296 8.57143,0 6.67542,-1.66885 7.35649,-6.26169 14.28571,-8.57143 1.80702,-0.60234 4.36742,1.34687 5.71429,0 0.67343,-0.67343 -0.67344,-2.18371 0,-2.85714 11.15067,-11.15067 1.53442,0.66136 8.57143,-2.85714 1.20467,-0.60234 1.73648,-2.11004 2.85714,-2.85715 0.5322,-0.3548 11.24549,-5.5312 11.42857,-5.71428 0.67344,-0.67344 -0.67343,-2.18371 0,-2.85714 1.50585,-1.50585 4.20844,-1.3513 5.71429,-2.85715 0.67343,-0.67343 -0.67344,-2.18371 0,-2.85714 1.50584,-1.50585 4.20844,-1.3513 5.71428,-2.85714 0.67344,-0.67344 -0.42591,-2.00531 0,-2.85715 0.3793,-0.7586 7.81283,-8.19212 8.57143,-8.57142 0.85184,-0.42592 2.18371,0.67343 2.85714,0 1.50585,-1.50585 1.3513,-4.20844 2.85715,-5.71429 0.67343,-0.67344 2.1837,0.67343 2.85714,0 1.50585,-1.50585 1.3513,-4.20844 2.85714,-5.71429 0.35293,-0.35292 9.63689,0 11.42857,0 0.69294,0 8.47955,-0.0919 8.57143,0 0.67344,0.67344 0,1.90477 0,2.85715 0,1.90476 -0.85183,4.01061 0,5.71428 0.42592,0.85184 2.00531,-0.42592 2.85715,0 1.20467,0.60234 1.90476,1.90476 2.85714,2.85715 0.95238,0.95238 2.2548,1.65246 2.85714,2.85714 0.42592,0.85183 0,1.90476 0,2.85714 0,7.61905 -0.95238,-0.95238 2.85714,2.85714 0.67344,0.67344 -0.30117,1.95364 0,2.85715 0.67344,2.0203 2.18371,3.69398 2.85715,5.71428 0.60234,1.80702 -0.85184,4.01062 0,5.71429 0.60234,1.20468 2.2548,1.65246 2.85714,2.85714 0.85184,1.70367 -0.85184,4.01062 0,5.71429 4.35652,8.71303 2.26504,-5.22556 5.71429,8.57143 0.46197,1.84789 -0.60234,3.90727 0,5.71428 0.42591,1.27775 1.65246,2.25481 2.85714,2.85714 0.85183,0.42592 2.55597,-0.9035 2.85714,0 0.90351,2.71053 -0.69296,5.799601 0,8.571431 0.65333,2.61331 4.50961,3.30493 5.71429,5.71429 0.42591,0.85183 -0.42592,2.005306 0,2.857141 0.60234,1.204677 2.2548,1.652466 2.85714,2.857143 0.88488,1.769752 -0.84538,10.583195 0,11.428571 1.50585,1.505847 4.533,1.085219 5.71429,2.857143 1.90476,2.857143 -0.95239,5.714286 0,8.571429 0.67343,2.020305 1.67586,3.942361 2.85714,5.714286 1.73393,2.6009 7.30523,6.039034 8.57143,8.571428 0.42591,0.851836 0,1.904762 0,2.857143 0,1.904762 -0.60234,3.90727 0,5.714286 0.42591,1.277753 2.2548,1.652465 2.85714,2.857143 0.42592,0.851835 -0.42592,2.005307 0,2.857142 0.60234,1.204678 2.11003,1.73648 2.85714,2.857143 1.18129,1.771925 1.67586,3.942361 2.85715,5.714286 0.7471,1.120664 1.90476,1.904762 2.85714,2.857143 1.90476,1.904762 4.22007,3.472958 5.71428,5.714286 0.52829,0.792428 -0.52828,2.064714 0,2.857142 1.49422,2.241328 4.22007,3.4729594 5.71429,5.7142864 0.52829,0.792429 0,1.904762 0,2.857143 0,1.904762 -0.60234,3.90727003 0,5.71428603 0.85184,2.55550597 4.86245,3.15877917 5.71429,5.71428547 0.50692,1.5207579 0,20.4048851 0,22.8571421 0,1.904762 1.05657,4.129428 0,5.714286 -1.18129,1.771925 -3.94237,1.67586 -5.71429,2.857143 -1.12066,0.747109 -1.65247,2.254804 -2.85714,2.857143 -0.85184,0.425917 -1.95364,-0.30117 -2.85715,0 -4.04061,1.34687 -7.38796,4.367415 -11.42857,5.714285 -0.90351,0.30117 -1.93319,-0.230986 -2.85714,0 -2.92177,0.730443 -5.61822,2.266502 -8.57143,2.857143 -1.86777,0.373555 -3.90727,-0.602338 -5.71428,0 -1.27776,0.425918 -1.65247,2.254805 -2.85715,2.857143 -0.85183,0.425918 -1.90476,0 -2.85714,0 -1.90476,0 -3.80952,0 -5.71429,0 -9.52381,0 -19.04761,0 -28.57142,0 -4.76191,0 -9.52381,0 -14.28572,0 -1.90476,0 -3.90727,0.602339 -5.71428,0 -1.27776,-0.425918 -1.65247,-2.254804 -2.85715,-2.857143 -2.69374,-1.34687 -5.77514,-1.738628 -8.57143,-2.857143 -5.85355,-2.34142 -11.16635,-6.579262 -17.14285,-8.571428 -3.72526,-1.241753 -8.0614,-0.836838 -11.42857,-2.857143 -1.82611,-1.095664 -0.95239,-4.761905 -2.85715,-5.714286 -2.5555,-1.277753 -5.91864,1.061117 -8.57143,0 -2.50107,-1.00043 -3.40442,-4.328368 -5.71428,-5.714285 -5.16501,-3.099006 -11.75538,-3.020546 -17.14286,-5.714286 -1.20468,-0.602338 -1.90476,-1.904762 -2.85714,-2.857143 -1.90476,-1.904761 -3.80953,-3.809523 -5.71429,-5.7142853 -1.90476,-1.9047619 -3.47296,-4.2200675 -5.71428,-5.7142857 -0.79243,-0.5282859 -1.90476,0 -2.85715,0 -0.95238,0 -1.90476,0 -2.85714,0 -4.7619,0 -9.52381,0 -14.28571,0 -1.90476,0 -4.12943,1.0565718 -5.71429,0 -1.77192,-1.1812832 -1.08522,-4.53300257 -2.85714,-5.7142856 -1.58486,-1.056572 -3.8664,0.461973 -5.71429,0 -2.066,-0.516501 -3.69398,-2.183708 -5.71428,-2.857143 -0.90351,-0.301169 -1.90476,0 -2.85715,0 -1.90476,0 -3.80952,0 -5.71428,0 -3.80953,0 -7.61905,0 -11.42857,0 -20,0 -40,0 -60,0 -5.71429,0 -11.42857,0 -17.14286,0 -2.85714,0 -5.8609,0.903508 -8.57143,0 -4.04061,-1.34687 -7.88472,-3.351719 -11.42857,-5.7142864 -2.24133,-1.494218 -3.15878,-4.86245 -5.71429,-5.714285 -3.61403,-1.204678 -8.02123,1.70367 -11.42857,0 -3.07133,-1.535669 -3.28618,-6.143324 -5.71428,-8.571429 -1.50585,-1.505846 -3.80953,-1.904762 -5.71429,-2.857143 -1.90476,-0.952381 -3.64828,-2.340642 -5.71428,-2.857143 -1.84789,-0.461972 -4.12943,1.056572 -5.71429,0 -1.77192,-1.181283 -1.3513,-4.208439 -2.85714,-5.714285 -0.67344,-0.673435 -2.18371,0.673435 -2.85715,0 0,-7.619048 0.95239,0.952381 -2.85714,-2.857143 -0.67343,-0.673435 0.42592,-2.005308 0,-2.857143 -0.39542,-0.790842 -5.31886,-4.923444 -5.71428,-5.714286 -0.42592,-0.851835 0.52828,-2.064714 0,-2.857143 -1.88198,-2.822958 -11.09983,-11.099825 -14.28572,-14.285714 -0.95238,-0.952381 -2.11003,-1.736479 -2.85714,-2.857143 -1.18128,-1.771925 -2.18371,-3.69398 -2.85714,-5.714286 -0.30117,-0.903507 0.67343,-2.183707 0,-2.857142 -1.50585,-1.505847 -4.20844,-1.351297 -5.71429,-2.857143 -6.99995,-13.9999 0.93469,-2.389798 -5.71429,-5.714286 -11.89074,-5.945374 3.05439,0.197245 -2.85714,-5.714284 -0.67343,-0.67344 -2.18371,0.67343 -2.85714,0 -1.50585,-1.50585 -1.3513,-4.20844 -2.85714,-5.71429 -0.67344,-0.67343 -2.18371,0.67344 -2.85715,0 -0.67343,-0.67343 0.67344,-2.18371 0,-2.85714 -0.67343,-0.67344 -2.1837,0.67343 -2.85714,0 -0.67344,-0.67344 0.85184,-2.431231 0,-2.857141 -1.70367,-0.85184 -3.80952,0 -5.71429,0 -0.95238,0 -2.1837,0.67343 -2.85714,0 -1.50585,-1.50585 -1.08522,-4.53301 -2.85714,-5.71429 -1.58486,-1.05657 -3.90727,0.60234 -5.71429,0 -1.27775,-0.42592 -1.90476,-1.90476 -2.85714,-2.85714 -3.26901,-3.26901 -3.38221,-3.98455 -8.57143,-5.71429 -1.80701,-0.60234 -4.36741,1.34687 -5.71428,0 -0.67344,-0.67343 0.85183,-2.43122 0,-2.85714 -13.00653,0 -0.16341,1.34687 -8.57143,-2.85714 -0.85184,-0.42592 -2.18371,0.67343 -2.85715,0 -0.67343,-0.67344 0.67344,-2.18371 0,-2.85715 -1.34687,-1.34687 -4.36741,1.34687 -5.71428,0 -0.67344,-0.67343 0,-1.90476 0,-2.85714 -1.90476,-0.95238 -4.20844,-1.3513 -5.71429,-2.85714 -0.61085,-0.61085 0.52508,-9.85335 0,-11.42857 -1.62184,-4.86554 -3.80954,-9.52381 -5.71424,-14.28572 z"
         id="path6738"
         style="fill:#b3b3b3;stroke:none;filter:url(#filter6784)" />
      <path
         d="m -611.42856,-377.63782 a 242.85715,227.14285 0 1 1 -485.71434,0 242.85715,227.14285 0 1 1 485.71434,0 z"
         transform="matrix(0.81784695,0,0,0.94106175,-184.18217,-3.6858853)"
         id="path6788"
         style="opacity:0.87610623;fill:#ffffff;fill-opacity:1;stroke:none;filter:url(#filter6830)" />
      <path
         d="m 911.15761,310.91022 a 45.456863,78.791901 0 1 1 -90.91373,0 45.456863,78.791901 0 1 1 90.91373,0 z"
         transform="matrix(0.69105315,0.33273849,-0.33273849,0.69105315,-1411.3106,-986.98729)"
         id="path6636"
         style="fill:#000000;fill-opacity:1;stroke:none" />
      <path
         d="m 911.15761,310.91022 a 45.456863,78.791901 0 1 1 -90.91373,0 45.456863,78.791901 0 1 1 90.91373,0 z"
         transform="matrix(0.70340279,0.33868478,-0.33868478,0.70340279,-1314.3659,-970.7208)"
         id="path6638"
         style="fill:#000000;fill-opacity:1;stroke:none" />
      <path
         d="m 911.15761,310.91022 a 45.456863,78.791901 0 1 1 -90.91373,0 45.456863,78.791901 0 1 1 90.91373,0 z"
         transform="matrix(0.86654606,0.25671091,-0.15602827,0.53315411,-1591.8046,-743.15617)"
         id="path6640"
         style="fill:#2b0000;fill-opacity:1;stroke:none" />
      <path
         d="m -708.64517,-274.79864 c -16.87113,20.75042 -119.94987,133.36271 -180.3894,126.91794 -60.43951,-6.44476 -156.36783,-141.62789 -139.49673,-162.37831 16.8712,-20.75042 16.9144,66.6475 150.08487,73.09226 60.7111,2.9381 186.6724,-58.38231 169.80126,-37.63189 z"
         id="path6642"
         style="fill:#800000;fill-opacity:1;stroke:none" />
      <path
         d="m -708.64513,-274.55701 c -16.8712,17.41323 -119.94991,111.91458 -180.38944,106.5063 -60.43951,-5.40827 -156.36783,-118.85052 -139.49673,-136.26374 16.8712,-17.41323 16.9144,55.92888 150.08487,61.33716 60.7111,2.46559 186.6724,-48.99295 169.8013,-31.57972 z"
         id="path6644"
         style="fill:url(#linearGradient6656);fill-opacity:1;stroke:none" />
      <path
         d="m -888.55137,-393.4645 c -23.51695,1.21151 -39.25159,21.05826 -31,36.5467 5.50275,12.88527 28.29555,20.41663 44.71875,13.22815 20.41973,-7.66654 27.19571,-29.51053 11.5625,-42.05467 -6.2047,-5.15085 -15.79938,-8.35707 -25.28125,-7.72018 z"
         id="path6646"
         style="fill:url(#linearGradient6658);fill-opacity:1;stroke:none" />
      <path
         d="m 911.15761,310.91022 a 45.456863,78.791901 0 1 1 -90.91373,0 45.456863,78.791901 0 1 1 90.91373,0 z"
         transform="matrix(0.55593701,0.2903358,-0.26768077,0.60298846,-1308.4257,-915.96025)"
         id="path6648"
         style="fill:#ffff00;fill-opacity:1;stroke:none" />
      <path
         d="m 911.15761,310.91022 a 45.456863,78.791901 0 1 1 -90.91373,0 45.456863,78.791901 0 1 1 90.91373,0 z"
         transform="matrix(0.55593701,0.2903358,-0.26768077,0.60298846,-1217.5119,-897.7775)"
         id="path6650"
         style="fill:#ffff00;fill-opacity:1;stroke:none" />
      <path
         d="m 911.15761,310.91022 a 45.456863,78.791901 0 1 1 -90.91373,0 45.456863,78.791901 0 1 1 90.91373,0 z"
         transform="matrix(0.38221626,0.19341537,-0.18403513,0.40169774,-1094.9639,-749.57212)"
         id="path6652"
         style="fill:#000000;fill-opacity:1;stroke:none" />
      <path
         d="m 911.15761,310.91022 a 45.456863,78.791901 0 1 1 -90.91373,0 45.456863,78.791901 0 1 1 90.91373,0 z"
         transform="matrix(0.38221626,0.19341537,-0.18403513,0.40169774,-1181.837,-769.77518)"
         id="path6654"
         style="fill:#000000;fill-opacity:1;stroke:none" />
      <path
         d="m -714.677,-277.65459 c -16.44717,17.91966 -116.93514,115.16945 -175.85561,109.60388 -58.92046,-5.56556 -152.43779,-122.30712 -135.99069,-140.22678 16.4472,-17.91967 16.4893,57.55549 146.31271,63.12107 59.18522,2.5373 181.98067,-50.41784 165.53359,-32.49817 z"
         id="path6844"
         style="fill:url(#linearGradient6854);fill-opacity:1;stroke:none" />
      <path
         d="m 911.15761,310.91022 a 45.456863,78.791901 0 1 1 -90.91373,0 45.456863,78.791901 0 1 1 90.91373,0 z"
         transform="matrix(0.69105315,0.33273849,-0.33273849,0.69105315,-1411.3106,-986.98729)"
         id="path6856"
         style="fill:url(#radialGradient6864);fill-opacity:1;stroke:none" />
      <path
         d="m 911.15761,310.91022 a 45.456863,78.791901 0 1 1 -90.91373,0 45.456863,78.791901 0 1 1 90.91373,0 z"
         transform="matrix(0.69105315,0.33273849,-0.33273849,0.69105315,-1306.2547,-958.70302)"
         id="path6866"
         style="fill:url(#radialGradient6868);fill-opacity:1;stroke:none" />
      <path
         d="m -888.55137,-393.4645 c -23.51695,1.21151 -39.25159,21.05826 -31,36.5467 5.50275,12.88527 28.29555,20.41663 44.71875,13.22815 20.41973,-7.66654 27.19571,-29.51053 11.5625,-42.05467 -6.2047,-5.15085 -15.79938,-8.35707 -25.28125,-7.72018 z"
         id="path6870"
         style="fill:url(#linearGradient6878);fill-opacity:1;stroke:none" />
    </g>
  </g>
</svg>
