<?xml version="1.0" encoding="UTF-8" standalone="no"?>
<!-- Created with Inkscape (http://www.inkscape.org/) -->

<svg
   xmlns:dc="http://purl.org/dc/elements/1.1/"
   xmlns:cc="http://creativecommons.org/ns#"
   xmlns:rdf="http://www.w3.org/1999/02/22-rdf-syntax-ns#"
   xmlns:svg="http://www.w3.org/2000/svg"
   xmlns="http://www.w3.org/2000/svg"
   xmlns:xlink="http://www.w3.org/1999/xlink"
   version="1.1"
   width="577.35114"
   height="611.66071"
   id="svg5841">
  <defs
     id="defs3">
    <filter
       color-interpolation-filters="sRGB"
       id="filter5804">
      <feGaussianBlur
         id="feGaussianBlur5806"
         stdDeviation="9.6373976" />
    </filter>
    <radialGradient
       cx="1239.0039"
       cy="-325.672"
       r="63.797001"
       fx="1239.0039"
       fy="-325.672"
       id="radialGradient5639"
       xlink:href="#linearGradient5199"
       gradientUnits="userSpaceOnUse"
       gradientTransform="matrix(0.08693629,-1.2654918,5.1444731,0.20058222,2098.153,934.05937)" />
    <linearGradient
       id="linearGradient5199">
      <stop
         id="stop5201"
         style="stop-color:#000000;stop-opacity:1"
         offset="0" />
      <stop
         id="stop5203"
         style="stop-color:#000000;stop-opacity:0"
         offset="1" />
    </linearGradient>
    <radialGradient
       cx="1724.9711"
       cy="4582.5972"
       r="16.020388"
       fx="1724.9711"
       fy="4582.5972"
       id="radialGradient5641"
       xlink:href="#linearGradient3218-4"
       gradientUnits="userSpaceOnUse"
       gradientTransform="matrix(0.90309258,-0.03911809,0.04178174,1.7404746,-24.752318,-3326.8581)" />
    <linearGradient
       id="linearGradient3218-4">
      <stop
         id="stop3220-1"
         style="stop-color:#ff6600;stop-opacity:1"
         offset="0" />
      <stop
         id="stop3222-2"
         style="stop-color:#ff6600;stop-opacity:0"
         offset="1" />
    </linearGradient>
    <radialGradient
       cx="1724.9711"
       cy="4582.5972"
       r="16.020388"
       fx="1724.9711"
       fy="4582.5972"
       id="radialGradient5643"
       xlink:href="#linearGradient3218-4"
       gradientUnits="userSpaceOnUse"
       gradientTransform="matrix(0.90309258,-0.03911809,0.04178174,1.7404746,-24.752318,-3326.8581)" />
    <linearGradient
       id="linearGradient5868">
      <stop
         id="stop5870"
         style="stop-color:#ff6600;stop-opacity:1"
         offset="0" />
      <stop
         id="stop5872"
         style="stop-color:#ff6600;stop-opacity:0"
         offset="1" />
    </linearGradient>
    <filter
       x="-0.18496117"
       y="-0.067701362"
       width="1.3699223"
       height="1.1354027"
       color-interpolation-filters="sRGB"
       id="filter5423">
      <feGaussianBlur
         id="feGaussianBlur5425"
         stdDeviation="3.8187218" />
    </filter>
    <radialGradient
       cx="1724.9711"
       cy="4582.5972"
       r="16.020388"
       fx="1724.9711"
       fy="4582.5972"
       id="radialGradient5645"
       xlink:href="#linearGradient3218-4"
       gradientUnits="userSpaceOnUse"
       gradientTransform="matrix(0.90309258,-0.03911809,0.04178174,1.7404746,-24.752318,-3326.8581)" />
    <linearGradient
       id="linearGradient5877">
      <stop
         id="stop5879"
         style="stop-color:#ff6600;stop-opacity:1"
         offset="0" />
      <stop
         id="stop5881"
         style="stop-color:#ff6600;stop-opacity:0"
         offset="1" />
    </linearGradient>
    <radialGradient
       cx="1724.9711"
       cy="4582.5972"
       r="16.020388"
       fx="1724.9711"
       fy="4582.5972"
       id="radialGradient5647"
       xlink:href="#linearGradient3218-4"
       gradientUnits="userSpaceOnUse"
       gradientTransform="matrix(0.90309258,-0.03911809,0.04178174,1.7404746,-24.752318,-3326.8581)" />
    <linearGradient
       id="linearGradient5884">
      <stop
         id="stop5886"
         style="stop-color:#ff6600;stop-opacity:1"
         offset="0" />
      <stop
         id="stop5888"
         style="stop-color:#ff6600;stop-opacity:0"
         offset="1" />
    </linearGradient>
    <radialGradient
       cx="1724.9711"
       cy="4582.5972"
       r="16.020388"
       fx="1724.9711"
       fy="4582.5972"
       id="radialGradient5649"
       xlink:href="#linearGradient3218-4"
       gradientUnits="userSpaceOnUse"
       gradientTransform="matrix(0.90309258,-0.03911809,0.04178174,1.7404746,-24.752318,-3326.8581)" />
    <linearGradient
       id="linearGradient5891">
      <stop
         id="stop5893"
         style="stop-color:#ff6600;stop-opacity:1"
         offset="0" />
      <stop
         id="stop5895"
         style="stop-color:#ff6600;stop-opacity:0"
         offset="1" />
    </linearGradient>
    <radialGradient
       cx="1724.9711"
       cy="4582.5972"
       r="16.020388"
       fx="1724.9711"
       fy="4582.5972"
       id="radialGradient5651"
       xlink:href="#linearGradient3218-4"
       gradientUnits="userSpaceOnUse"
       gradientTransform="matrix(0.90309258,-0.03911809,0.04178174,1.7404746,-24.752318,-3326.8581)" />
    <linearGradient
       id="linearGradient5898">
      <stop
         id="stop5900"
         style="stop-color:#ff6600;stop-opacity:1"
         offset="0" />
      <stop
         id="stop5902"
         style="stop-color:#ff6600;stop-opacity:0"
         offset="1" />
    </linearGradient>
    <radialGradient
       cx="1724.9711"
       cy="4582.5972"
       r="16.020388"
       fx="1724.9711"
       fy="4582.5972"
       id="radialGradient5653"
       xlink:href="#linearGradient3218-4"
       gradientUnits="userSpaceOnUse"
       gradientTransform="matrix(0.90309258,-0.03911809,0.04178174,1.7404746,-24.752318,-3326.8581)" />
    <linearGradient
       id="linearGradient5905">
      <stop
         id="stop5907"
         style="stop-color:#ff6600;stop-opacity:1"
         offset="0" />
      <stop
         id="stop5909"
         style="stop-color:#ff6600;stop-opacity:0"
         offset="1" />
    </linearGradient>
    <radialGradient
       cx="1724.9711"
       cy="4582.5972"
       r="16.020388"
       fx="1724.9711"
       fy="4582.5972"
       id="radialGradient5655"
       xlink:href="#linearGradient3218-4"
       gradientUnits="userSpaceOnUse"
       gradientTransform="matrix(0.90309258,-0.03911809,0.04178174,1.7404746,-24.752318,-3326.8581)" />
    <linearGradient
       id="linearGradient5912">
      <stop
         id="stop5914"
         style="stop-color:#ff6600;stop-opacity:1"
         offset="0" />
      <stop
         id="stop5916"
         style="stop-color:#ff6600;stop-opacity:0"
         offset="1" />
    </linearGradient>
    <radialGradient
       cx="1724.9711"
       cy="4582.5972"
       r="16.020388"
       fx="1724.9711"
       fy="4582.5972"
       id="radialGradient5657"
       xlink:href="#linearGradient3218-4"
       gradientUnits="userSpaceOnUse"
       gradientTransform="matrix(0.90309258,-0.03911809,0.04178174,1.7404746,-24.752318,-3326.8581)" />
    <linearGradient
       id="linearGradient5919">
      <stop
         id="stop5921"
         style="stop-color:#ff6600;stop-opacity:1"
         offset="0" />
      <stop
         id="stop5923"
         style="stop-color:#ff6600;stop-opacity:0"
         offset="1" />
    </linearGradient>
    <radialGradient
       cx="1724.9711"
       cy="4582.5972"
       r="16.020388"
       fx="1724.9711"
       fy="4582.5972"
       id="radialGradient5659"
       xlink:href="#linearGradient3218-4"
       gradientUnits="userSpaceOnUse"
       gradientTransform="matrix(0.90309258,-0.03911809,0.04178174,1.7404746,-24.752318,-3326.8581)" />
    <linearGradient
       id="linearGradient5926">
      <stop
         id="stop5928"
         style="stop-color:#ff6600;stop-opacity:1"
         offset="0" />
      <stop
         id="stop5930"
         style="stop-color:#ff6600;stop-opacity:0"
         offset="1" />
    </linearGradient>
    <radialGradient
       cx="1724.9711"
       cy="4582.5972"
       r="16.020388"
       fx="1724.9711"
       fy="4582.5972"
       id="radialGradient5661"
       xlink:href="#linearGradient3218-4"
       gradientUnits="userSpaceOnUse"
       gradientTransform="matrix(4.7545984,-0.34716749,0.21997235,15.446465,-8700.1677,-71121.186)" />
    <linearGradient
       id="linearGradient5933">
      <stop
         id="stop5935"
         style="stop-color:#ff6600;stop-opacity:1"
         offset="0" />
      <stop
         id="stop5937"
         style="stop-color:#ff6600;stop-opacity:0"
         offset="1" />
    </linearGradient>
  </defs>
  <metadata
     id="metadata4">
    <rdf:RDF>
      <cc:Work
         rdf:about="">
        <dc:format>image/svg+xml</dc:format>
        <dc:type
           rdf:resource="http://purl.org/dc/dcmitype/StillImage" />
        <dc:title></dc:title>
      </cc:Work>
    </rdf:RDF>
  </metadata>
  <g
     transform="translate(-26.10884,-527.242)"
     id="layer1">
    <g
       transform="matrix(0.81505672,0,0,0.81505672,-116.86165,1602.0948)"
       id="g5808">
      <path
         d="m 591.83565,-915.63941 c 0,136.7385 -37.76238,247.5874 -84.34391,247.5874 -46.58197,0 -84.34435,-110.8489 -84.34435,-247.5874 0,-136.73849 37.76238,-247.58629 84.34435,-247.58629 46.58153,0 84.34391,110.8478 84.34391,247.58629 z m 77.79492,-17.9504 c 0,136.7385 -62.54532,247.5873 -139.69843,247.5873 -77.15311,0 -139.69843,-110.8488 -139.69843,-247.5873 0,-136.73839 62.54532,-247.58629 139.69843,-247.58629 77.15311,0 139.69843,110.8479 139.69843,247.58629 z m 0,0 c 0,136.7385 -62.54532,247.5873 -139.69843,247.5873 -77.15311,0 -139.69843,-110.8488 -139.69843,-247.5873 0,-136.73839 62.54532,-247.58629 139.69843,-247.58629 77.15311,0 139.69843,110.8479 139.69843,247.58629 z m 0,0 c 0,136.7385 -62.54532,247.5873 -139.69843,247.5873 -77.15311,0 -139.69843,-110.8488 -139.69843,-247.5873 0,-136.73839 62.54532,-247.58629 139.69843,-247.58629 77.15311,0 139.69843,110.8479 139.69843,247.58629 z m 90.03159,5.625 c 0,136.7385 -78.92072,247.5873 -176.27381,247.5873 -97.35309,0 -176.27381,-110.8488 -176.27381,-247.5873 0,-136.73839 78.92072,-247.58629 176.27381,-247.58629 97.35309,0 176.27381,110.8479 176.27381,247.58629 z m 0,0 c 0,136.7385 -78.92072,247.5873 -176.27381,247.5873 -97.35309,0 -176.27381,-110.8488 -176.27381,-247.5873 0,-136.73839 78.92072,-247.58629 176.27381,-247.58629 97.35309,0 176.27381,110.8479 176.27381,247.58629 z m 0,0 c 0,136.7385 -78.92072,247.5873 -176.27381,247.5873 -97.35309,0 -176.27381,-110.8488 -176.27381,-247.5873 0,-136.73839 78.92072,-247.58629 176.27381,-247.58629 97.35309,0 176.27381,110.8479 176.27381,247.58629 z m -123.793,0 c 0,136.7385 -78.92073,247.5873 -176.27381,247.5873 -97.35309,0 -176.27381,-110.8488 -176.27381,-247.5873 0,-136.73839 78.92072,-247.58629 176.27381,-247.58629 97.35308,0 176.27381,110.8479 176.27381,247.58629 z m 0,0 c 0,136.7385 -78.92073,247.5873 -176.27381,247.5873 -97.35309,0 -176.27381,-110.8488 -176.27381,-247.5873 0,-136.73839 78.92072,-247.58629 176.27381,-247.58629 97.35308,0 176.27381,110.8479 176.27381,247.58629 z m 0,0 c 0,136.7385 -78.92073,247.5873 -176.27381,247.5873 -97.35309,0 -176.27381,-110.8488 -176.27381,-247.5873 0,-136.73839 78.92072,-247.58629 176.27381,-247.58629 97.35308,0 176.27381,110.8479 176.27381,247.58629 z m 213.82548,2.8173 c 0,138.2924 -86.4786,250.4008 -193.15476,250.4008 -106.67615,0 -193.15476,-112.1084 -193.15476,-250.4008 0,-138.29229 86.47861,-250.39979 193.15476,-250.39979 106.67616,0 193.15476,112.1075 193.15476,250.39979 z m 0,0 c 0,138.2924 -86.4786,250.4008 -193.15476,250.4008 -106.67615,0 -193.15476,-112.1084 -193.15476,-250.4008 0,-138.29229 86.47861,-250.39979 193.15476,-250.39979 106.67616,0 193.15476,112.1075 193.15476,250.39979 z m 0,0 c 0,138.2924 -86.4786,250.4008 -193.15476,250.4008 -106.67615,0 -193.15476,-112.1084 -193.15476,-250.4008 0,-138.29229 86.47861,-250.39979 193.15476,-250.39979 106.67616,0 193.15476,112.1075 193.15476,250.39979 z M 588.2992,-1282.394 c 2.049,10.9069 -31.20184,27.9763 -30.18035,104.9222 l 0.70183,52.8559 c 0.2032,15.2298 -0.56974,29.3385 -9.12373,29.3385 -8.55443,0 -15.44104,-12.2625 -15.44104,-27.4952 l 0,-51.9342 c 0,-73.1375 48.62534,-136.5253 54.04329,-107.6872 z m -3.07256,351.61949 c 0,138.2924 -86.4786,250.4008 -193.15476,250.4008 -106.67615,0 -193.15478,-112.1084 -193.15478,-250.4008 0,-138.29229 86.47863,-250.39979 193.15478,-250.39979 106.67616,0 193.15476,112.1075 193.15476,250.39979 z m 0,0 c 0,138.2924 -86.4786,250.4008 -193.15476,250.4008 -106.67615,0 -193.15478,-112.1084 -193.15478,-250.4008 0,-138.29229 86.47863,-250.39979 193.15478,-250.39979 106.67616,0 193.15476,112.1075 193.15476,250.39979 z m 0,0 c 0,138.2924 -86.4786,250.4008 -193.15476,250.4008 -106.67615,0 -193.15478,-112.1084 -193.15478,-250.4008 0,-138.29229 86.47863,-250.39979 193.15478,-250.39979 106.67616,0 193.15476,112.1075 193.15476,250.39979 z m 17.9146,-355.41189 c 8.0396,15.6745 -32.95702,59.6071 -32.95702,83.2681 l 0,80.675 c 0,23.6616 -14.32194,42.7096 -32.11265,42.7096 -17.79004,0 -21.38624,-20.0472 -20.28108,-43.6753 l 4.22509,-90.332 c 1.13187,-24.1959 52.6819,-128.1031 81.12566,-72.6454 z"
         transform="matrix(1.0162401,0,0,0.96177865,-3.2304431,-44.013661)"
         id="path5721"
         style="fill:#000000;fill-opacity:1;stroke:none;filter:url(#filter5804)" />
      <path
         d="m 522.11529,-848.33146 c 180.78959,12.11667 319.99222,84.23859 310.91731,161.08813 -9.07469,76.84955 -162.99056,129.32628 -343.78038,117.20961 -180.78959,-12.11666 -319.99113,-84.23836 -310.91622,-161.08791 9.07469,-76.84955 162.98948,-129.32649 343.77929,-117.20983 z"
         id="path5555"
         style="fill:url(#radialGradient5639);fill-opacity:1;stroke:none" />
      <path
         d="m 605.87411,-1286.1865 c 8.0396,15.6746 -32.95702,59.6072 -32.95702,83.2681 l 0,80.675 c 0,23.6616 -14.32194,42.7097 -32.11265,42.7097 -17.79004,0 -21.38624,-20.0473 -20.28108,-43.6754 l 4.22509,-90.3319 c 1.13187,-24.1959 52.6819,-128.1031 81.12566,-72.6455 z"
         id="path5557"
         style="fill:#803300;fill-opacity:0.97647059;stroke:none" />
      <g
         transform="matrix(10.185917,0,0,10.185917,-17084.424,-47654.263)"
         id="g5559">
        <path
           d="m 1740.698,4583.7529 c 0,15.4074 -7.1726,27.8976 -16.0204,27.8976 -8.8478,0 -16.0204,-12.4902 -16.0204,-27.8976 0,-15.4074 7.1726,-27.8975 16.0204,-27.8975 8.8478,0 16.0204,12.4901 16.0204,27.8975 z"
           transform="matrix(1.1836735,0,0,0.88118812,-325.43597,547.91887)"
           id="path5561"
           style="fill:#803300;fill-opacity:0.97647059;stroke:none" />
        <path
           d="m 1740.698,4583.7529 c 0,15.4074 -7.1726,27.8976 -16.0204,27.8976 -8.8478,0 -16.0204,-12.4902 -16.0204,-27.8976 0,-15.4074 7.1726,-27.8975 16.0204,-27.8975 8.8478,0 16.0204,12.4901 16.0204,27.8975 z"
           transform="matrix(1.1836735,0,0,0.88118812,-325.43597,547.91887)"
           id="path5563"
           style="fill:url(#radialGradient5641);fill-opacity:1;stroke:none" />
        <path
           d="m 1740.698,4583.7529 c 0,15.4074 -7.1726,27.8976 -16.0204,27.8976 -8.8478,0 -16.0204,-12.4902 -16.0204,-27.8976 0,-15.4074 7.1726,-27.8975 16.0204,-27.8975 8.8478,0 16.0204,12.4901 16.0204,27.8975 z"
           transform="matrix(1.1836735,0,0,0.88118812,-325.43597,547.91887)"
           id="path5565"
           style="fill:url(#radialGradient5643);fill-opacity:1;stroke:none" />
      </g>
      <path
         d="m 1337.9508,-1522.1881 c 1.8755,7.6017 -28.5599,19.4984 -27.6249,73.1266 l 0.6424,36.8384 c 0.186,10.6146 -0.5215,20.4478 -8.3512,20.4478 -7.8301,0 -14.1336,-8.5465 -14.1336,-19.1631 l 0,-36.196 c 0,-50.9739 44.5081,-95.1527 49.4673,-75.0537 z"
         transform="matrix(1.0925054,0,0,1.4348028,-870.68644,901.64567)"
         id="path5567"
         style="fill:#ff6600;fill-opacity:0.97647059;stroke:none;filter:url(#filter5423)" />
      <g
         transform="matrix(10.185917,0,0,10.185917,-16819.956,-47648.636)"
         id="g5569">
        <path
           d="m 1740.698,4583.7529 c 0,15.4074 -7.1726,27.8976 -16.0204,27.8976 -8.8478,0 -16.0204,-12.4902 -16.0204,-27.8976 0,-15.4074 7.1726,-27.8975 16.0204,-27.8975 8.8478,0 16.0204,12.4901 16.0204,27.8975 z"
           transform="matrix(1.1836735,0,0,0.88118812,-325.43597,547.91887)"
           id="path5571"
           style="fill:#803300;fill-opacity:0.97647059;stroke:none" />
        <path
           d="m 1740.698,4583.7529 c 0,15.4074 -7.1726,27.8976 -16.0204,27.8976 -8.8478,0 -16.0204,-12.4902 -16.0204,-27.8976 0,-15.4074 7.1726,-27.8975 16.0204,-27.8975 8.8478,0 16.0204,12.4901 16.0204,27.8975 z"
           transform="matrix(1.1836735,0,0,0.88118812,-325.43597,547.91887)"
           id="path5573"
           style="fill:url(#radialGradient5645);fill-opacity:1;stroke:none" />
        <path
           d="m 1740.698,4583.7529 c 0,15.4074 -7.1726,27.8976 -16.0204,27.8976 -8.8478,0 -16.0204,-12.4902 -16.0204,-27.8976 0,-15.4074 7.1726,-27.8975 16.0204,-27.8975 8.8478,0 16.0204,12.4901 16.0204,27.8975 z"
           transform="matrix(1.1836735,0,0,0.88118812,-325.43597,547.91887)"
           id="path5575"
           style="fill:url(#radialGradient5647);fill-opacity:1;stroke:none" />
      </g>
      <g
         transform="matrix(9.2957087,0,0,10.071468,-15489.286,-47126.468)"
         id="g5577">
        <path
           d="m 1740.698,4583.7529 c 0,15.4074 -7.1726,27.8976 -16.0204,27.8976 -8.8478,0 -16.0204,-12.4902 -16.0204,-27.8976 0,-15.4074 7.1726,-27.8975 16.0204,-27.8975 8.8478,0 16.0204,12.4901 16.0204,27.8975 z"
           transform="matrix(1.1836735,0,0,0.88118812,-325.43597,547.91887)"
           id="path5579"
           style="fill:#803300;fill-opacity:0.97647059;stroke:none" />
        <path
           d="m 1740.698,4583.7529 c 0,15.4074 -7.1726,27.8976 -16.0204,27.8976 -8.8478,0 -16.0204,-12.4902 -16.0204,-27.8976 0,-15.4074 7.1726,-27.8975 16.0204,-27.8975 8.8478,0 16.0204,12.4901 16.0204,27.8975 z"
           transform="matrix(1.1836735,0,0,0.88118812,-325.43597,547.91887)"
           id="path5581"
           style="fill:url(#radialGradient5649);fill-opacity:1;stroke:none" />
        <path
           d="m 1740.698,4583.7529 c 0,15.4074 -7.1726,27.8976 -16.0204,27.8976 -8.8478,0 -16.0204,-12.4902 -16.0204,-27.8976 0,-15.4074 7.1726,-27.8975 16.0204,-27.8975 8.8478,0 16.0204,12.4901 16.0204,27.8975 z"
           transform="matrix(1.1836735,0,0,0.88118812,-325.43597,547.91887)"
           id="path5583"
           style="fill:url(#radialGradient5651);fill-opacity:1;stroke:none" />
      </g>
      <g
         transform="matrix(9.2957087,0,0,10.071468,-15365.493,-47126.468)"
         id="g5585">
        <path
           d="m 1740.698,4583.7529 c 0,15.4074 -7.1726,27.8976 -16.0204,27.8976 -8.8478,0 -16.0204,-12.4902 -16.0204,-27.8976 0,-15.4074 7.1726,-27.8975 16.0204,-27.8975 8.8478,0 16.0204,12.4901 16.0204,27.8975 z"
           transform="matrix(1.1836735,0,0,0.88118812,-325.43597,547.91887)"
           id="path5587"
           style="fill:#803300;fill-opacity:0.97647059;stroke:none" />
        <path
           d="m 1740.698,4583.7529 c 0,15.4074 -7.1726,27.8976 -16.0204,27.8976 -8.8478,0 -16.0204,-12.4902 -16.0204,-27.8976 0,-15.4074 7.1726,-27.8975 16.0204,-27.8975 8.8478,0 16.0204,12.4901 16.0204,27.8975 z"
           transform="matrix(1.1836735,0,0,0.88118812,-325.43597,547.91887)"
           id="path5589"
           style="fill:url(#radialGradient5653);fill-opacity:1;stroke:none" />
        <path
           d="m 1740.698,4583.7529 c 0,15.4074 -7.1726,27.8976 -16.0204,27.8976 -8.8478,0 -16.0204,-12.4902 -16.0204,-27.8976 0,-15.4074 7.1726,-27.8975 16.0204,-27.8975 8.8478,0 16.0204,12.4901 16.0204,27.8975 z"
           transform="matrix(1.1836735,0,0,0.88118812,-325.43597,547.91887)"
           id="path5591"
           style="fill:url(#radialGradient5655);fill-opacity:1;stroke:none" />
      </g>
      <g
         transform="matrix(7.3669248,0,0,10.071468,-12109.119,-47132.093)"
         id="g5593">
        <path
           d="m 1740.698,4583.7529 c 0,15.4074 -7.1726,27.8976 -16.0204,27.8976 -8.8478,0 -16.0204,-12.4902 -16.0204,-27.8976 0,-15.4074 7.1726,-27.8975 16.0204,-27.8975 8.8478,0 16.0204,12.4901 16.0204,27.8975 z"
           transform="matrix(1.1836735,0,0,0.88118812,-325.43597,547.91887)"
           id="path5595"
           style="fill:#803300;fill-opacity:0.97647059;stroke:none" />
        <path
           d="m 1740.698,4583.7529 c 0,15.4074 -7.1726,27.8976 -16.0204,27.8976 -8.8478,0 -16.0204,-12.4902 -16.0204,-27.8976 0,-15.4074 7.1726,-27.8975 16.0204,-27.8975 8.8478,0 16.0204,12.4901 16.0204,27.8975 z"
           transform="matrix(1.1836735,0,0,0.88118812,-325.43597,547.91887)"
           id="path5597"
           style="fill:url(#radialGradient5657);fill-opacity:1;stroke:none" />
        <path
           d="m 1740.698,4583.7529 c 0,15.4074 -7.1726,27.8976 -16.0204,27.8976 -8.8478,0 -16.0204,-12.4902 -16.0204,-27.8976 0,-15.4074 7.1726,-27.8975 16.0204,-27.8975 8.8478,0 16.0204,12.4901 16.0204,27.8975 z"
           transform="matrix(1.1836735,0,0,0.88118812,-325.43597,547.91887)"
           id="path5599"
           style="fill:url(#radialGradient5659);fill-opacity:1;stroke:none" />
      </g>
      <path
         d="m 594.56852,-915.63946 c 0,136.73852 -37.76238,247.58739 -84.34391,247.58739 -46.58197,0 -84.34435,-110.84887 -84.34435,-247.58739 0,-136.73854 37.76238,-247.58634 84.34435,-247.58634 46.58153,0 84.34391,110.8478 84.34391,247.58634 z"
         id="path5601"
         style="fill:url(#radialGradient5661);fill-opacity:1;stroke:none" />
      <path
         d="m 388.25278,-977.74989 c -12.75497,-9.50241 29.85854,-111.63961 51.31836,-115.48701 15.20003,-2.9322 79.29176,80.7657 70.68874,94.811 -5.80477,18.60932 -110.13459,33.85964 -122.0071,20.67601 z"
         id="path5603"
         style="fill:#ff6600;stroke:#000000;stroke-width:1.22690821px;stroke-linecap:butt;stroke-linejoin:miter;stroke-opacity:1" />
      <path
         d="m 395.33547,-974.8633 c -11.70324,-8.71831 27.39619,-102.4276 47.08627,-105.9574 13.94662,-2.6903 72.75299,74.1012 64.85944,86.9875 -5.32608,17.07377 -101.05244,31.06568 -111.94571,18.9699 z"
         id="path5605"
         style="fill:#000000;stroke:#000000;stroke-width:1.22690868px;stroke-linecap:butt;stroke-linejoin:miter;stroke-opacity:1" />
      <path
         d="m 346.8861,-922.60005 c -0.0219,0.98072 -0.14452,1.94575 -0.14452,2.93063 0,88.98135 83.73078,161.11388 187.02092,161.11388 96.63816,0 176.16049,-63.15222 186.00203,-144.15821 -1.80522,3.14271 -3.55897,6.3208 -5.60331,9.35005 -3.08161,4.56579 -6.37234,9.04163 -9.96963,13.32731 -3.5973,4.28567 -7.49108,8.37183 -11.57055,12.35044 -4.07947,3.97859 -8.35252,7.79882 -12.88045,11.44335 -4.52792,3.6445 -9.31993,7.11325 -14.26304,10.39669 -4.9431,3.28342 -10.03007,6.38491 -15.35462,9.28024 -5.32478,2.89538 -10.84641,5.61382 -16.51891,8.09411 -5.67272,2.48027 -11.55084,4.73009 -17.53779,6.76831 -5.98716,2.0382 -12.07024,3.87338 -18.33835,5.44256 -6.26789,1.56916 -12.69607,2.90416 -19.2114,3.97726 -6.51534,1.0731 -13.13709,1.89212 -19.86636,2.44216 -6.72926,0.55006 -13.53911,0.83733 -20.4486,0.83733 -6.90948,0 -13.79203,-0.28727 -20.5213,-0.83733 -6.72926,-0.55004 -13.35102,-1.36906 -19.86657,-2.44216 -6.51533,-1.0731 -12.87059,-2.4081 -19.1387,-3.97726 -6.26789,-1.56918 -12.42389,-3.40436 -18.41083,-5.44256 -5.98717,-2.03822 -11.79237,-4.28804 -17.46509,-6.76831 -5.67273,-2.48029 -11.19436,-5.19873 -16.51891,-8.09411 -5.32477,-2.89533 -10.48444,-5.99682 -15.42754,-9.28024 -4.94311,-3.28344 -9.6622,-6.75219 -14.19013,-10.39669 -4.52815,-3.64453 -8.87389,-7.46476 -12.95314,-11.44335 -4.07948,-3.97861 -7.90056,-8.06477 -11.49785,-12.35044 -3.5973,-4.28568 -6.96073,-8.76152 -10.04234,-13.32731 -3.08161,-4.56579 -5.90921,-9.27595 -8.44142,-14.09485 -2.53242,-4.81888 -4.74537,-9.74764 -6.69489,-14.79261 -0.046,-0.11715 -0.10072,-0.23165 -0.14671,-0.34889 z"
         id="path5607"
         style="fill:#ff6600;fill-opacity:1;stroke:none" />
      <path
         d="m 349.73122,-915.63661 c -0.0219,0.89433 -0.14452,1.77443 -0.14452,2.67266 0,68.63371 59.2892,126.2758 139.43649,142.42324 2.07587,0.41824 5.99461,-14.28225 7.67107,-15.74512 3.66343,-3.1964 -0.18612,-0.84031 -0.18612,-0.84031 l 55.08272,2.57377 c 0,0 0.89582,2.90166 9.02893,17.09393 0.50276,0.87747 2.73213,-0.2566 4.09042,-0.40388 82.05454,-8.89373 145.42563,-63.64388 154.12806,-129.63844 -1.78682,2.86607 -3.52284,5.76447 -5.54659,8.5271 -3.0503,4.16389 -6.30797,8.24575 -9.86869,12.1542 -3.56116,3.90843 -7.41553,7.63494 -11.45362,11.26335 -4.0383,3.62841 -8.26799,7.11234 -12.74993,10.43605 -4.48238,3.32377 -9.226,6.48717 -14.11896,9.48161 -4.89318,2.99439 -9.92847,5.82289 -15.19937,8.46343 -5.27047,2.64048 -10.73648,5.11961 -16.35161,7.38158 -5.61535,2.262 -11.43391,4.31376 -17.36064,6.17258 -5.92651,1.8588 -1.36092,18.89126 -7.56575,20.32227 -6.20417,1.43104 -36.38788,6.2624 -42.83752,7.24103 -6.44964,0.97868 0.22948,-17.24703 -6.4319,-16.74541 -6.66117,0.50162 -13.40204,0.7636 -20.24168,0.7636 -6.83963,0 -13.65232,-0.26198 -20.31393,-0.7636 -6.66095,-0.50162 -13.21591,-1.24856 -19.66533,-2.22724 -6.4492,-0.97862 -12.7403,-2.19611 -18.94513,-3.62719 -6.20439,-1.43101 0.93545,21.2887 -4.99084,19.42992 -5.92673,-1.85882 -34.17056,-12.94518 -39.78569,-15.20717 -5.61535,-2.26195 -1.8177,-20.09989 -7.08817,-22.74037 -5.2709,-2.64054 -10.37846,-5.46904 -15.27141,-8.46343 -4.89318,-2.99444 -9.56454,-6.15784 -14.04692,-9.48161 -4.48195,-3.32371 -8.78389,-6.80764 -12.82176,-10.43605 -4.03853,-3.62841 -7.82085,-7.35492 -11.38158,-11.26335 -3.56094,-3.90845 -6.89065,-7.99031 -9.94073,-12.1542 -3.05051,-4.16393 -5.84965,-8.4595 -8.35602,-12.85423 -2.5068,-4.39471 -4.69763,-8.88966 -6.62744,-13.49055 -0.0482,-0.10664 -0.0985,-0.21131 -0.14452,-0.31817 z"
         id="path5609"
         style="fill:#000000;fill-opacity:1;stroke:none" />
      <path
         d="m 680.08898,-973.51839 c 12.75497,-9.50241 -29.85854,-111.63961 -51.31836,-115.48701 -15.20003,-2.9322 -79.29175,80.7657 -70.68873,94.81101 5.80476,18.60931 110.13458,33.85964 122.00709,20.676 z"
         id="path5611"
         style="fill:#ff6600;stroke:#000000;stroke-width:1.22690821px;stroke-linecap:butt;stroke-linejoin:miter;stroke-opacity:1" />
      <path
         d="m 673.00629,-970.63179 c 11.70324,-8.71832 -27.39618,-102.42761 -47.08626,-105.95741 -13.94663,-2.6903 -72.753,74.1012 -64.85945,86.98751 5.32609,17.07376 101.05245,31.06567 111.94571,18.9699 z"
         id="path5613"
         style="fill:#000000;stroke:#000000;stroke-width:1.22690868px;stroke-linecap:butt;stroke-linejoin:miter;stroke-opacity:1" />
    </g>
  </g>
</svg>
